<svg width="201" height="189" viewBox="0 0 201 189" fill="none" xmlns="http://www.w3.org/2000/svg">
<g clip-path="url(#clip0_2011_847)">
<rect x="11.9286" y="12.7861" width="188.571" height="43.4286" rx="9.14286" fill="#2A2A2A"/>
<g clip-path="url(#clip1_2011_847)">
<rect x="21.0713" y="17.3574" width="170.286" height="6.85714" rx="3.42857" fill="#5D5D5D"/>
<rect x="54.2143" y="31.0713" width="137.143" height="6.85714" rx="3.42857" fill="#5D5D5D"/>
<rect x="49.6429" y="44.7861" width="141.714" height="6.85714" rx="3.42857" fill="#5D5D5D"/>
</g>
<rect x="0.5" y="65.9287" width="188.571" height="38.8571" rx="9.14286" fill="#C20F31"/>
<rect x="9.64288" y="70.5" width="112" height="6.85714" rx="3.42857" fill="#F793A6"/>
<rect x="9.64288" y="81.9287" width="162.857" height="6.85714" rx="3.42857" fill="#F793A6"/>
<rect x="9.64288" y="93.3574" width="78.2857" height="6.85714" rx="3.42857" fill="#F793A6"/>
<rect x="0.5" y="109.357" width="28.5714" height="13.7143" rx="6.85714" fill="#1A1A1A"/>
<path d="M8.21426 117.93H9.42569C9.46329 117.93 9.50057 117.923 9.53538 117.908C9.57019 117.894 9.60185 117.873 9.62855 117.847L11.6057 115.867L12.4171 115.072C12.4439 115.046 12.4652 115.014 12.4797 114.979C12.4942 114.945 12.5016 114.907 12.5016 114.87C12.5016 114.832 12.4942 114.794 12.4797 114.76C12.4652 114.725 12.4439 114.693 12.4171 114.667L11.2057 113.441C11.1791 113.414 11.1475 113.393 11.1127 113.378C11.0779 113.364 11.0405 113.356 11.0028 113.356C10.9651 113.356 10.9278 113.364 10.893 113.378C10.8581 113.393 10.8265 113.414 10.8 113.441L9.99426 114.25L8.0114 116.23C7.98492 116.256 7.96397 116.288 7.94975 116.323C7.93554 116.358 7.92833 116.395 7.92855 116.432V117.644C7.92855 117.72 7.95865 117.792 8.01223 117.846C8.06581 117.899 8.13848 117.93 8.21426 117.93ZM11.0028 114.047L11.8114 114.855L11.4057 115.261L10.5971 114.452L11.0028 114.047ZM8.49997 116.55L10.1943 114.855L11.0028 115.664L9.30855 117.358H8.49997V116.55ZM12.7857 118.501H7.64283C7.56705 118.501 7.49438 118.531 7.4408 118.585C7.38722 118.638 7.35712 118.711 7.35712 118.787C7.35712 118.862 7.38722 118.935 7.4408 118.989C7.49438 119.042 7.56705 119.072 7.64283 119.072H12.7857C12.8615 119.072 12.9341 119.042 12.9877 118.989C13.0413 118.935 13.0714 118.862 13.0714 118.787C13.0714 118.711 13.0413 118.638 12.9877 118.585C12.9341 118.531 12.8615 118.501 12.7857 118.501Z" fill="#5D5D5D"/>
<circle cx="19.9286" cy="116.214" r="2.28571" fill="#175CD3"/>
<rect x="33.6429" y="109.357" width="28.5714" height="13.7143" rx="6.85714" fill="#1A1A1A"/>
<path d="M45.8571 115.857H43.7143V113.715C43.7143 113.62 43.6767 113.529 43.6097 113.462C43.5427 113.395 43.4519 113.357 43.3571 113.357C43.2624 113.357 43.1716 113.395 43.1046 113.462C43.0376 113.529 43 113.62 43 113.715V115.857H40.8571C40.7624 115.857 40.6716 115.895 40.6046 115.962C40.5376 116.029 40.5 116.12 40.5 116.215C40.5 116.309 40.5376 116.4 40.6046 116.467C40.6716 116.534 40.7624 116.572 40.8571 116.572H43V118.715C43 118.809 43.0376 118.9 43.1046 118.967C43.1716 119.034 43.2624 119.072 43.3571 119.072C43.4519 119.072 43.5427 119.034 43.6097 118.967C43.6767 118.9 43.7143 118.809 43.7143 118.715V116.572H45.8571C45.9519 116.572 46.0427 116.534 46.1097 116.467C46.1767 116.4 46.2143 116.309 46.2143 116.215C46.2143 116.12 46.1767 116.029 46.1097 115.962C46.0427 115.895 45.9519 115.857 45.8571 115.857Z" fill="#5D5D5D"/>
<circle cx="53.0715" cy="116.214" r="2.28571" fill="#5925DC"/>
<rect x="66.7857" y="109.357" width="28.5714" height="13.7143" rx="6.85714" fill="#1A1A1A"/>
<path d="M74.5 117.93H75.7114C75.749 117.93 75.7863 117.923 75.8211 117.908C75.8559 117.894 75.8876 117.873 75.9143 117.847L77.8914 115.867L78.7028 115.072C78.7296 115.046 78.7509 115.014 78.7654 114.979C78.7799 114.945 78.7873 114.907 78.7873 114.87C78.7873 114.832 78.7799 114.794 78.7654 114.76C78.7509 114.725 78.7296 114.693 78.7028 114.667L77.4914 113.441C77.4648 113.414 77.4332 113.393 77.3984 113.378C77.3636 113.364 77.3263 113.356 77.2885 113.356C77.2508 113.356 77.2135 113.364 77.1787 113.378C77.1438 113.393 77.1122 113.414 77.0857 113.441L76.28 114.25L74.2971 116.23C74.2706 116.256 74.2497 116.288 74.2355 116.323C74.2212 116.358 74.214 116.395 74.2143 116.432V117.644C74.2143 117.72 74.2444 117.792 74.2979 117.846C74.3515 117.899 74.4242 117.93 74.5 117.93ZM77.2885 114.047L78.0971 114.855L77.6914 115.261L76.8828 114.452L77.2885 114.047ZM74.7857 116.55L76.48 114.855L77.2885 115.664L75.5943 117.358H74.7857V116.55ZM79.0714 118.501H73.9285C73.8528 118.501 73.7801 118.531 73.7265 118.585C73.6729 118.638 73.6428 118.711 73.6428 118.787C73.6428 118.862 73.6729 118.935 73.7265 118.989C73.7801 119.042 73.8528 119.072 73.9285 119.072H79.0714C79.1472 119.072 79.2198 119.042 79.2734 118.989C79.327 118.935 79.3571 118.862 79.3571 118.787C79.3571 118.711 79.327 118.638 79.2734 118.585C79.2198 118.531 79.1472 118.501 79.0714 118.501Z" fill="#5D5D5D"/>
<circle cx="86.2143" cy="116.214" r="2.28571" fill="#34C759"/>
<rect x="11.9286" y="132.215" width="188.571" height="43.4286" rx="9.14286" fill="#2A2A2A"/>
<g clip-path="url(#clip2_2011_847)">
<rect x="21.0713" y="136.786" width="170.286" height="6.85714" rx="3.42857" fill="#5D5D5D"/>
<rect x="54.2143" y="150.5" width="137.143" height="6.85714" rx="3.42857" fill="#5D5D5D"/>
<rect x="49.6429" y="164.215" width="141.714" height="6.85714" rx="3.42857" fill="#5D5D5D"/>
</g>
</g>
<defs>
<clipPath id="clip0_2011_847">
<rect width="200" height="187.429" fill="white" transform="translate(0.5 0.786133)"/>
</clipPath>
<clipPath id="clip1_2011_847">
<rect width="170.286" height="34.2857" fill="white" transform="translate(21.0713 17.3574)"/>
</clipPath>
<clipPath id="clip2_2011_847">
<rect width="170.286" height="34.2857" fill="white" transform="translate(21.0713 136.786)"/>
</clipPath>
</defs>
</svg>
