<svg width="100" height="37" viewBox="0 0 100 37" fill="none" xmlns="http://www.w3.org/2000/svg">
<g filter="url(#filter0_d_2055_6534)">
<rect x="2.69727" y="1.5" width="95.312" height="32" rx="8" fill="#1877F2" fill-opacity="0.2"/>
<rect x="3.19727" y="2" width="94.312" height="31" rx="7.5" stroke="#1877F2"/>
<path d="M21.5053 12.156H23.0093V9.61202C22.2811 9.5363 21.5494 9.49892 20.8173 9.50002C18.6413 9.50002 17.1533 10.828 17.1533 13.26V15.356H14.6973V18.204H17.1533V25.5H20.0973V18.204H22.5453L22.9133 15.356H20.0973V13.54C20.0973 12.7 20.3213 12.156 21.5053 12.156Z" fill="#1877F2"/>
<path d="M29.9676 22V13.2727H35.3795V14.4062H31.2844V17.0653H34.9917V18.1946H31.2844V22H29.9676ZM38.778 22.1449C38.3632 22.1449 37.9882 22.0682 37.653 21.9148C37.3177 21.7585 37.0521 21.5327 36.8561 21.2372C36.6629 20.9418 36.5663 20.5795 36.5663 20.1506C36.5663 19.7812 36.6373 19.4773 36.7794 19.2386C36.9214 19 37.1132 18.8111 37.3547 18.6719C37.5961 18.5327 37.866 18.4276 38.1643 18.3565C38.4626 18.2855 38.7666 18.2315 39.0763 18.1946C39.4683 18.1491 39.7865 18.1122 40.0308 18.0838C40.2751 18.0526 40.4527 18.0028 40.5635 17.9347C40.6743 17.8665 40.7297 17.7557 40.7297 17.6023V17.5724C40.7297 17.2003 40.6246 16.9119 40.4143 16.7074C40.2069 16.5028 39.8973 16.4006 39.4854 16.4006C39.0564 16.4006 38.7183 16.4957 38.4711 16.6861C38.2268 16.8736 38.0578 17.0824 37.964 17.3125L36.7666 17.0398C36.9086 16.642 37.116 16.321 37.3888 16.0767C37.6643 15.8295 37.9811 15.6506 38.339 15.5398C38.697 15.4261 39.0734 15.3693 39.4683 15.3693C39.7297 15.3693 40.0067 15.4006 40.2993 15.4631C40.5947 15.5227 40.8703 15.6335 41.126 15.7955C41.3845 15.9574 41.5961 16.1889 41.7609 16.4901C41.9257 16.7884 42.0081 17.1761 42.0081 17.6534V22H40.7638V21.1051H40.7126C40.6302 21.2699 40.5067 21.4318 40.3419 21.5909C40.1771 21.75 39.9655 21.8821 39.7069 21.9872C39.4484 22.0923 39.1388 22.1449 38.778 22.1449ZM39.055 21.1222C39.4072 21.1222 39.7084 21.0526 39.9584 20.9134C40.2112 20.7741 40.403 20.5923 40.5336 20.3679C40.6672 20.1406 40.7339 19.8977 40.7339 19.6392V18.7955C40.6885 18.8409 40.6004 18.8835 40.4697 18.9233C40.3419 18.9602 40.1956 18.9929 40.0308 19.0213C39.866 19.0469 39.7055 19.071 39.5493 19.0938C39.393 19.1136 39.2623 19.1307 39.1572 19.1449C38.9101 19.1761 38.6842 19.2287 38.4797 19.3026C38.278 19.3764 38.116 19.483 37.9939 19.6222C37.8746 19.7585 37.8149 19.9403 37.8149 20.1676C37.8149 20.483 37.9314 20.7216 38.1643 20.8835C38.3973 21.0426 38.6942 21.1222 39.055 21.1222ZM46.4623 22.1321C45.8287 22.1321 45.2833 21.9886 44.8259 21.7017C44.3714 21.4119 44.0219 21.0128 43.7776 20.5043C43.5333 19.9957 43.4111 19.4134 43.4111 18.7571C43.4111 18.0923 43.5361 17.5057 43.7861 16.9972C44.0361 16.4858 44.3884 16.0866 44.843 15.7997C45.2975 15.5128 45.833 15.3693 46.4495 15.3693C46.9466 15.3693 47.3898 15.4616 47.779 15.6463C48.1682 15.8281 48.4822 16.0838 48.7208 16.4134C48.9623 16.7429 49.1057 17.1278 49.1512 17.5682H47.9111C47.843 17.2614 47.6867 16.9972 47.4424 16.7756C47.2009 16.554 46.877 16.4432 46.4708 16.4432C46.1157 16.4432 45.8046 16.5369 45.5376 16.7244C45.2733 16.9091 45.0674 17.1733 44.9197 17.517C44.7719 17.858 44.6981 18.2614 44.6981 18.7273C44.6981 19.2045 44.7705 19.6165 44.9154 19.9631C45.0603 20.3097 45.2648 20.5781 45.529 20.7685C45.7961 20.9588 46.11 21.054 46.4708 21.054C46.7123 21.054 46.931 21.0099 47.127 20.9219C47.3259 20.831 47.4921 20.7017 47.6256 20.5341C47.762 20.3665 47.8572 20.1648 47.9111 19.929H49.1512C49.1057 20.3523 48.968 20.7301 48.7378 21.0625C48.5077 21.3949 48.1995 21.6562 47.8131 21.8466C47.4296 22.0369 46.9793 22.1321 46.4623 22.1321ZM53.3348 22.1321C52.6899 22.1321 52.1345 21.9943 51.6686 21.7188C51.2055 21.4403 50.8476 21.0497 50.5947 20.5469C50.3447 20.0412 50.2197 19.4489 50.2197 18.7699C50.2197 18.0994 50.3447 17.5085 50.5947 16.9972C50.8476 16.4858 51.1998 16.0866 51.6515 15.7997C52.1061 15.5128 52.6373 15.3693 53.2453 15.3693C53.6146 15.3693 53.9726 15.4304 54.3192 15.5526C54.6657 15.6747 54.9768 15.8665 55.2524 16.1278C55.528 16.3892 55.7453 16.7287 55.9044 17.1463C56.0635 17.5611 56.143 18.0653 56.143 18.6591V19.1108H50.9399V18.1562H54.8944C54.8944 17.821 54.8263 17.5241 54.6899 17.2656C54.5535 17.0043 54.3618 16.7983 54.1146 16.6477C53.8703 16.4972 53.5834 16.4219 53.2538 16.4219C52.8959 16.4219 52.5834 16.5099 52.3163 16.6861C52.0521 16.8594 51.8476 17.0866 51.7027 17.3679C51.5606 17.6463 51.4896 17.9489 51.4896 18.2756V19.0213C51.4896 19.4588 51.5663 19.831 51.7197 20.1378C51.876 20.4446 52.0933 20.679 52.3717 20.8409C52.6501 21 52.9754 21.0795 53.3476 21.0795C53.589 21.0795 53.8092 21.0455 54.0081 20.9773C54.2069 20.9062 54.3788 20.8011 54.5237 20.6619C54.6686 20.5227 54.7794 20.3509 54.8561 20.1463L56.0621 20.3636C55.9655 20.7187 55.7922 21.0298 55.5422 21.2969C55.295 21.5611 54.9839 21.767 54.6089 21.9148C54.2368 22.0597 53.8121 22.1321 53.3348 22.1321ZM57.659 22V13.2727H58.9331V16.5156H59.0099C59.0837 16.3793 59.1903 16.2216 59.3295 16.0426C59.4687 15.8636 59.6618 15.7074 59.909 15.5739C60.1562 15.4375 60.4829 15.3693 60.8891 15.3693C61.4175 15.3693 61.8891 15.5028 62.3039 15.7699C62.7187 16.0369 63.0439 16.4219 63.2797 16.9247C63.5184 17.4276 63.6377 18.0327 63.6377 18.7401C63.6377 19.4474 63.5198 20.054 63.284 20.5597C63.0482 21.0625 62.7243 21.4503 62.3124 21.723C61.9005 21.9929 61.4303 22.1278 60.9019 22.1278C60.5042 22.1278 60.1789 22.0611 59.926 21.9276C59.676 21.794 59.48 21.6378 59.338 21.4588C59.1959 21.2798 59.0866 21.1207 59.0099 20.9815H58.9033V22H57.659ZM58.9076 18.7273C58.9076 19.1875 58.9743 19.5909 59.1079 19.9375C59.2414 20.2841 59.4346 20.5554 59.6874 20.7514C59.9403 20.9446 60.2499 21.0412 60.6164 21.0412C60.9971 21.0412 61.3153 20.9403 61.5709 20.7386C61.8266 20.5341 62.0198 20.2571 62.1505 19.9077C62.284 19.5582 62.3508 19.1648 62.3508 18.7273C62.3508 18.2955 62.2854 17.9077 62.1547 17.5639C62.0269 17.2202 61.8337 16.9489 61.5752 16.75C61.3195 16.5511 60.9999 16.4517 60.6164 16.4517C60.2471 16.4517 59.9346 16.5469 59.6789 16.7372C59.426 16.9276 59.2343 17.1932 59.1036 17.5341C58.9729 17.875 58.9076 18.2727 58.9076 18.7273ZM67.8256 22.1321C67.2119 22.1321 66.6764 21.9915 66.219 21.7102C65.7616 21.429 65.4065 21.0355 65.1537 20.5298C64.9008 20.0241 64.7744 19.4332 64.7744 18.7571C64.7744 18.0781 64.9008 17.4844 65.1537 16.9759C65.4065 16.4673 65.7616 16.0724 66.219 15.7912C66.6764 15.5099 67.2119 15.3693 67.8256 15.3693C68.4392 15.3693 68.9747 15.5099 69.4321 15.7912C69.8895 16.0724 70.2446 16.4673 70.4974 16.9759C70.7503 17.4844 70.8767 18.0781 70.8767 18.7571C70.8767 19.4332 70.7503 20.0241 70.4974 20.5298C70.2446 21.0355 69.8895 21.429 69.4321 21.7102C68.9747 21.9915 68.4392 22.1321 67.8256 22.1321ZM67.8298 21.0625C68.2275 21.0625 68.5571 20.9574 68.8184 20.7472C69.0798 20.5369 69.273 20.2571 69.398 19.9077C69.5258 19.5582 69.5898 19.1733 69.5898 18.7528C69.5898 18.3352 69.5258 17.9517 69.398 17.6023C69.273 17.25 69.0798 16.9673 68.8184 16.7543C68.5571 16.5412 68.2275 16.4347 67.8298 16.4347C67.4292 16.4347 67.0969 16.5412 66.8327 16.7543C66.5713 16.9673 66.3767 17.25 66.2488 17.6023C66.1238 17.9517 66.0613 18.3352 66.0613 18.7528C66.0613 19.1733 66.1238 19.5582 66.2488 19.9077C66.3767 20.2571 66.5713 20.5369 66.8327 20.7472C67.0969 20.9574 67.4292 21.0625 67.8298 21.0625ZM75.056 22.1321C74.4424 22.1321 73.9069 21.9915 73.4495 21.7102C72.9921 21.429 72.637 21.0355 72.3841 20.5298C72.1313 20.0241 72.0049 19.4332 72.0049 18.7571C72.0049 18.0781 72.1313 17.4844 72.3841 16.9759C72.637 16.4673 72.9921 16.0724 73.4495 15.7912C73.9069 15.5099 74.4424 15.3693 75.056 15.3693C75.6697 15.3693 76.2052 15.5099 76.6626 15.7912C77.1199 16.0724 77.4751 16.4673 77.7279 16.9759C77.9807 17.4844 78.1072 18.0781 78.1072 18.7571C78.1072 19.4332 77.9807 20.0241 77.7279 20.5298C77.4751 21.0355 77.1199 21.429 76.6626 21.7102C76.2052 21.9915 75.6697 22.1321 75.056 22.1321ZM75.0603 21.0625C75.458 21.0625 75.7876 20.9574 76.0489 20.7472C76.3103 20.5369 76.5035 20.2571 76.6285 19.9077C76.7563 19.5582 76.8202 19.1733 76.8202 18.7528C76.8202 18.3352 76.7563 17.9517 76.6285 17.6023C76.5035 17.25 76.3103 16.9673 76.0489 16.7543C75.7876 16.5412 75.458 16.4347 75.0603 16.4347C74.6597 16.4347 74.3273 16.5412 74.0631 16.7543C73.8018 16.9673 73.6072 17.25 73.4793 17.6023C73.3543 17.9517 73.2918 18.3352 73.2918 18.7528C73.2918 19.1733 73.3543 19.5582 73.4793 19.9077C73.6072 20.2571 73.8018 20.5369 74.0631 20.7472C74.3273 20.9574 74.6597 21.0625 75.0603 21.0625ZM80.7013 19.7798L80.6927 18.2244H80.9143L83.5223 15.4545H85.0479L82.0734 18.608H81.8731L80.7013 19.7798ZM79.5294 22V13.2727H80.8035V22H79.5294ZM83.6629 22L81.3192 18.8892L82.197 17.9986L85.2268 22H83.6629Z" fill="white"/>
</g>
<defs>
<filter id="filter0_d_2055_6534" x="0.697266" y="0.5" width="99.3115" height="36" filterUnits="userSpaceOnUse" color-interpolation-filters="sRGB">
<feFlood flood-opacity="0" result="BackgroundImageFix"/>
<feColorMatrix in="SourceAlpha" type="matrix" values="0 0 0 0 0 0 0 0 0 0 0 0 0 0 0 0 0 0 127 0" result="hardAlpha"/>
<feOffset dy="1"/>
<feGaussianBlur stdDeviation="1"/>
<feColorMatrix type="matrix" values="0 0 0 0 0.0627451 0 0 0 0 0.0941176 0 0 0 0 0.156863 0 0 0 0.05 0"/>
<feBlend mode="normal" in2="BackgroundImageFix" result="effect1_dropShadow_2055_6534"/>
<feBlend mode="normal" in="SourceGraphic" in2="effect1_dropShadow_2055_6534" result="shape"/>
</filter>
</defs>
</svg>
