<svg width="109" height="37" viewBox="0 0 109 37" fill="none" xmlns="http://www.w3.org/2000/svg">
<g filter="url(#filter0_d_2055_6516)">
<rect x="2.63574" y="1.5" width="104.011" height="32" rx="8" fill="#FF005F" fill-opacity="0.2"/>
<rect x="3.13574" y="2" width="103.011" height="31" rx="7.5" stroke="#FF005F"/>
<path d="M22.6411 9.5C20.4673 9.5 20.1946 9.50987 19.3405 9.54845C18.4882 9.58747 17.9063 9.7225 17.3972 9.92032C16.8632 10.1209 16.3795 10.4357 15.9797 10.8426C15.5724 11.2422 15.257 11.7258 15.0556 12.2597C14.8573 12.7684 14.7223 13.3497 14.6837 14.2011C14.6456 15.0543 14.6357 15.3271 14.6357 17.5C14.6357 19.6729 14.6452 19.9448 14.6837 20.798C14.7232 21.6494 14.8582 22.2307 15.0561 22.7394C15.2569 23.2735 15.572 23.7573 15.9792 24.1569C16.3789 24.5642 16.8627 24.8792 17.3968 25.0801C17.9063 25.2775 18.4882 25.4125 19.3405 25.4516C20.1941 25.4906 20.4669 25.5 22.6411 25.5C24.8154 25.5 25.0877 25.4906 25.9413 25.4516C26.7936 25.4125 27.3764 25.278 27.8855 25.0801C28.4196 24.8792 28.9034 24.564 29.303 24.1565C29.7103 23.7569 30.0257 23.2733 30.2271 22.7394C30.4236 22.2307 30.5586 21.6494 30.5985 20.798C30.6371 19.9448 30.647 19.6725 30.647 17.5C30.647 15.3275 30.6371 15.0548 30.5985 14.2011C30.5586 13.3497 30.4236 12.7684 30.2266 12.2597C30.0253 11.7256 29.71 11.2419 29.3026 10.8422C28.9029 10.4352 28.4191 10.1206 27.885 9.92032C27.3746 9.72294 26.7927 9.58792 25.9404 9.5489C25.0863 9.50987 24.8145 9.50045 22.6393 9.50045L22.6411 9.5ZM21.9234 10.9417H22.6411C24.7791 10.9417 25.0321 10.9494 25.8767 10.9879C26.6573 11.0238 27.0807 11.1539 27.3629 11.2634C27.7105 11.3915 28.0249 11.596 28.2829 11.8618C28.5488 12.1198 28.7536 12.434 28.8822 12.7814C28.9917 13.0635 29.1222 13.4865 29.1577 14.2666C29.1962 15.11 29.2043 15.3634 29.2043 17.4982C29.2043 19.6335 29.1962 19.8865 29.1577 20.7298C29.1218 21.5103 28.9917 21.9333 28.8822 22.2146C28.7539 22.5621 28.5491 22.8764 28.2829 23.1342C28.025 23.3997 27.7107 23.6041 27.3633 23.7321C27.0807 23.842 26.6573 23.9721 25.8767 24.008C25.0325 24.0461 24.7791 24.0547 22.6416 24.0547C20.5036 24.0547 20.2506 24.0461 19.4064 24.008C18.6259 23.9721 18.2024 23.8416 17.9198 23.7321C17.5721 23.604 17.2576 23.3995 16.9993 23.1337C16.7334 22.8758 16.5286 22.5616 16.4 22.2141C16.2906 21.9324 16.16 21.5094 16.1246 20.7293C16.086 19.886 16.0784 19.6326 16.0784 17.4964C16.0784 15.3603 16.086 15.1082 16.1246 14.2648C16.1605 13.4843 16.2906 13.0613 16.4 12.7796C16.5285 12.432 16.7333 12.1176 16.9993 11.8595C17.2576 11.5938 17.5722 11.3891 17.9198 11.2607C18.2024 11.1508 18.6259 11.0207 19.4064 10.9848C20.1452 10.9516 20.4314 10.9417 21.9229 10.9399L21.9234 10.9417ZM26.9148 12.27C26.7249 12.2702 26.5394 12.3266 26.3817 12.4322C26.2239 12.5378 26.101 12.6878 26.0285 12.8632C25.956 13.0386 25.9371 13.2316 25.9742 13.4178C26.0114 13.6039 26.1029 13.7749 26.2372 13.9091C26.3715 14.0432 26.5425 14.1346 26.7287 14.1715C26.9149 14.2085 27.1079 14.1894 27.2832 14.1168C27.4586 14.0441 27.6085 13.921 27.7139 13.7632C27.8193 13.6053 27.8756 13.4198 27.8756 13.23C27.8756 12.6997 27.445 12.27 26.9148 12.27ZM22.6416 13.3914C20.3713 13.3914 18.5303 15.2315 18.5303 17.5004C18.5303 19.7694 20.3713 21.6077 22.6416 21.6077C24.9118 21.6077 26.7524 19.7689 26.7524 17.5C26.7524 15.2311 24.9118 13.3914 22.6416 13.3914ZM22.6416 14.8336C23.349 14.8334 24.0276 15.1142 24.528 15.6142C25.0285 16.1142 25.3098 16.7926 25.3102 17.5C25.3101 17.8504 25.2409 18.1973 25.1067 18.5209C24.9725 18.8446 24.7759 19.1386 24.528 19.3863C24.2802 19.6339 23.986 19.8303 23.6622 19.9642C23.3385 20.0982 22.9915 20.167 22.6411 20.1668C21.9337 20.1669 21.2552 19.886 20.7548 19.3859C20.2544 18.8858 19.9732 18.2074 19.973 17.5C19.9731 17.1497 20.0422 16.8028 20.1764 16.4792C20.3106 16.1557 20.5072 15.8617 20.755 15.6141C21.0028 15.3665 21.2969 15.1701 21.6207 15.0362C21.9444 14.9023 22.2913 14.8335 22.6416 14.8336Z" fill="#FF005F"/>
<path d="M38.9221 13.2727V22H37.6053V13.2727H38.9221ZM42.0115 18.1136V22H40.7374V15.4545H41.9604V16.5199H42.0414C42.1919 16.1733 42.4277 15.8949 42.7488 15.6847C43.0726 15.4744 43.4803 15.3693 43.9718 15.3693C44.4178 15.3693 44.8084 15.4631 45.1436 15.6506C45.4789 15.8352 45.7388 16.1108 45.9235 16.4773C46.1081 16.8437 46.2005 17.2969 46.2005 17.8366V22H44.9263V17.9901C44.9263 17.5156 44.8027 17.1449 44.5556 16.8778C44.3084 16.608 43.9689 16.473 43.5371 16.473C43.2417 16.473 42.9789 16.5369 42.7488 16.6648C42.5215 16.7926 42.3411 16.9801 42.2076 17.2273C42.0769 17.4716 42.0115 17.767 42.0115 18.1136ZM52.8141 17.0526L51.6593 17.2571C51.611 17.1094 51.5343 16.9687 51.4292 16.8352C51.3269 16.7017 51.1877 16.5923 51.0115 16.5071C50.8354 16.4219 50.6152 16.3793 50.351 16.3793C49.9902 16.3793 49.6891 16.4602 49.4476 16.6222C49.2061 16.7812 49.0854 16.9872 49.0854 17.2401C49.0854 17.4588 49.1664 17.6349 49.3283 17.7685C49.4902 17.902 49.7516 18.0114 50.1124 18.0966L51.1522 18.3352C51.7544 18.4744 52.2033 18.6889 52.4988 18.9787C52.7942 19.2685 52.9419 19.6449 52.9419 20.108C52.9419 20.5 52.8283 20.8494 52.601 21.1562C52.3766 21.4602 52.0627 21.6989 51.6593 21.8722C51.2587 22.0455 50.7942 22.1321 50.2658 22.1321C49.5328 22.1321 48.9348 21.9759 48.4718 21.6634C48.0087 21.348 47.7246 20.9006 47.6195 20.321L48.851 20.1335C48.9277 20.4545 49.0854 20.6974 49.324 20.8622C49.5627 21.0241 49.8738 21.1051 50.2573 21.1051C50.6749 21.1051 51.0087 21.0185 51.2587 20.8452C51.5087 20.669 51.6337 20.4545 51.6337 20.2017C51.6337 19.9972 51.557 19.8253 51.4036 19.6861C51.253 19.5469 51.0215 19.4418 50.709 19.3707L49.601 19.1278C48.9902 18.9886 48.5385 18.767 48.2459 18.4631C47.9561 18.1591 47.8113 17.7741 47.8113 17.3082C47.8113 16.9219 47.9192 16.5838 48.1351 16.294C48.351 16.0043 48.6493 15.7784 49.03 15.6165C49.4107 15.4517 49.8468 15.3693 50.3382 15.3693C51.0456 15.3693 51.6025 15.5227 52.0087 15.8295C52.415 16.1335 52.6834 16.5412 52.8141 17.0526ZM57.3983 15.4545V16.4773H53.823V15.4545H57.3983ZM54.7818 13.8864H56.0559V20.0781C56.0559 20.3253 56.0929 20.5114 56.1667 20.6364C56.2406 20.7585 56.3358 20.8423 56.4522 20.8878C56.5716 20.9304 56.7008 20.9517 56.84 20.9517C56.9423 20.9517 57.0318 20.9446 57.1085 20.9304C57.1852 20.9162 57.2449 20.9048 57.2875 20.8963L57.5176 21.9489C57.4437 21.9773 57.3386 22.0057 57.2022 22.0341C57.0659 22.0653 56.8954 22.0824 56.6909 22.0852C56.3556 22.0909 56.0431 22.0312 55.7534 21.9062C55.4636 21.7812 55.2292 21.5881 55.0502 21.3267C54.8713 21.0653 54.7818 20.7372 54.7818 20.3423V13.8864ZM60.7125 22.1449C60.2978 22.1449 59.9228 22.0682 59.5875 21.9148C59.2523 21.7585 58.9867 21.5327 58.7907 21.2372C58.5975 20.9418 58.5009 20.5795 58.5009 20.1506C58.5009 19.7812 58.5719 19.4773 58.714 19.2386C58.856 19 59.0478 18.8111 59.2892 18.6719C59.5307 18.5327 59.8006 18.4276 60.0989 18.3565C60.3972 18.2855 60.7012 18.2315 61.0108 18.1946C61.4029 18.1491 61.7211 18.1122 61.9654 18.0838C62.2097 18.0526 62.3873 18.0028 62.498 17.9347C62.6088 17.8665 62.6642 17.7557 62.6642 17.6023V17.5724C62.6642 17.2003 62.5591 16.9119 62.3489 16.7074C62.1415 16.5028 61.8319 16.4006 61.4199 16.4006C60.9909 16.4006 60.6529 16.4957 60.4057 16.6861C60.1614 16.8736 59.9924 17.0824 59.8986 17.3125L58.7012 17.0398C58.8432 16.642 59.0506 16.321 59.3233 16.0767C59.5989 15.8295 59.9157 15.6506 60.2736 15.5398C60.6316 15.4261 61.008 15.3693 61.4029 15.3693C61.6642 15.3693 61.9412 15.4006 62.2338 15.4631C62.5293 15.5227 62.8049 15.6335 63.0605 15.7955C63.3191 15.9574 63.5307 16.1889 63.6955 16.4901C63.8603 16.7884 63.9426 17.1761 63.9426 17.6534V22H62.6983V21.1051H62.6472C62.5648 21.2699 62.4412 21.4318 62.2765 21.5909C62.1117 21.75 61.9 21.8821 61.6415 21.9872C61.383 22.0923 61.0733 22.1449 60.7125 22.1449ZM60.9895 21.1222C61.3418 21.1222 61.6429 21.0526 61.8929 20.9134C62.1458 20.7741 62.3375 20.5923 62.4682 20.3679C62.6017 20.1406 62.6685 19.8977 62.6685 19.6392V18.7955C62.623 18.8409 62.535 18.8835 62.4043 18.9233C62.2765 18.9602 62.1301 18.9929 61.9654 19.0213C61.8006 19.0469 61.6401 19.071 61.4838 19.0938C61.3276 19.1136 61.1969 19.1307 61.0918 19.1449C60.8446 19.1761 60.6188 19.2287 60.4142 19.3026C60.2125 19.3764 60.0506 19.483 59.9284 19.6222C59.8091 19.7585 59.7495 19.9403 59.7495 20.1676C59.7495 20.483 59.8659 20.7216 60.0989 20.8835C60.3319 21.0426 60.6287 21.1222 60.9895 21.1222ZM68.3841 24.5909C67.8642 24.5909 67.4167 24.5227 67.0417 24.3864C66.6696 24.25 66.3656 24.0696 66.1298 23.8452C65.894 23.6207 65.7179 23.375 65.6014 23.108L66.6966 22.6562C66.7733 22.7812 66.8755 22.9134 67.0034 23.0526C67.1341 23.1946 67.3102 23.3153 67.5318 23.4148C67.7562 23.5142 68.0446 23.5639 68.3968 23.5639C68.8798 23.5639 69.2789 23.446 69.5943 23.2102C69.9096 22.9773 70.0673 22.6051 70.0673 22.0938V20.8068H69.9863C69.9096 20.946 69.7988 21.1009 69.6539 21.2713C69.5119 21.4418 69.3159 21.5895 69.0659 21.7145C68.8159 21.8395 68.4906 21.902 68.09 21.902C67.573 21.902 67.1071 21.7812 66.6923 21.5398C66.2804 21.2955 65.9537 20.9361 65.7122 20.4616C65.4735 19.9844 65.3542 19.3977 65.3542 18.7017C65.3542 18.0057 65.4721 17.4091 65.7079 16.9119C65.9466 16.4148 66.2733 16.0341 66.688 15.7699C67.1028 15.5028 67.573 15.3693 68.0985 15.3693C68.5048 15.3693 68.8329 15.4375 69.0829 15.5739C69.3329 15.7074 69.5275 15.8636 69.6667 16.0426C69.8088 16.2216 69.9181 16.3793 69.9949 16.5156H70.0886V15.4545H71.3372V22.1449C71.3372 22.7074 71.2065 23.169 70.9451 23.5298C70.6838 23.8906 70.3301 24.1577 69.8841 24.331C69.4409 24.5043 68.9409 24.5909 68.3841 24.5909ZM68.3713 20.8452C68.7377 20.8452 69.0474 20.7599 69.3002 20.5895C69.5559 20.4162 69.7491 20.169 69.8798 19.848C70.0133 19.5241 70.0801 19.1364 70.0801 18.6847C70.0801 18.2443 70.0147 17.8565 69.8841 17.5213C69.7534 17.1861 69.5616 16.9247 69.3088 16.7372C69.0559 16.5469 68.7434 16.4517 68.3713 16.4517C67.9877 16.4517 67.6681 16.5511 67.4125 16.75C67.1568 16.946 66.9636 17.2131 66.8329 17.5511C66.7051 17.8892 66.6412 18.267 66.6412 18.6847C66.6412 19.1136 66.7065 19.4901 66.8372 19.8139C66.9679 20.1378 67.161 20.3906 67.4167 20.5724C67.6752 20.7543 67.9934 20.8452 68.3713 20.8452ZM73.046 22V15.4545H74.2775V16.4943H74.3457C74.465 16.142 74.6752 15.8651 74.9764 15.6634C75.2804 15.4588 75.6241 15.3565 76.0076 15.3565C76.0872 15.3565 76.1809 15.3594 76.2889 15.3651C76.3997 15.3707 76.4863 15.3778 76.5488 15.3864V16.6051C76.4977 16.5909 76.4068 16.5753 76.2761 16.5582C76.1454 16.5384 76.0147 16.5284 75.8841 16.5284C75.5829 16.5284 75.3145 16.5923 75.0787 16.7202C74.8457 16.8452 74.661 17.0199 74.5247 17.2443C74.3883 17.4659 74.3201 17.7187 74.3201 18.0028V22H73.046ZM79.4977 22.1449C79.0829 22.1449 78.7079 22.0682 78.3727 21.9148C78.0375 21.7585 77.7718 21.5327 77.5758 21.2372C77.3826 20.9418 77.286 20.5795 77.286 20.1506C77.286 19.7812 77.3571 19.4773 77.4991 19.2386C77.6412 19 77.8329 18.8111 78.0744 18.6719C78.3159 18.5327 78.5858 18.4276 78.8841 18.3565C79.1824 18.2855 79.4863 18.2315 79.796 18.1946C80.188 18.1491 80.5062 18.1122 80.7505 18.0838C80.9949 18.0526 81.1724 18.0028 81.2832 17.9347C81.394 17.8665 81.4494 17.7557 81.4494 17.6023V17.5724C81.4494 17.2003 81.3443 16.9119 81.1341 16.7074C80.9267 16.5028 80.617 16.4006 80.2051 16.4006C79.7761 16.4006 79.438 16.4957 79.1909 16.6861C78.9466 16.8736 78.7775 17.0824 78.6838 17.3125L77.4863 17.0398C77.6284 16.642 77.8358 16.321 78.1085 16.0767C78.3841 15.8295 78.7008 15.6506 79.0588 15.5398C79.4167 15.4261 79.7931 15.3693 80.188 15.3693C80.4494 15.3693 80.7264 15.4006 81.019 15.4631C81.3145 15.5227 81.59 15.6335 81.8457 15.7955C82.1042 15.9574 82.3159 16.1889 82.4806 16.4901C82.6454 16.7884 82.7278 17.1761 82.7278 17.6534V22H81.4835V21.1051H81.4324C81.35 21.2699 81.2264 21.4318 81.0616 21.5909C80.8968 21.75 80.6852 21.8821 80.4267 21.9872C80.1681 22.0923 79.8585 22.1449 79.4977 22.1449ZM79.7747 21.1222C80.127 21.1222 80.4281 21.0526 80.6781 20.9134C80.9309 20.7741 81.1227 20.5923 81.2534 20.3679C81.3869 20.1406 81.4537 19.8977 81.4537 19.6392V18.7955C81.4082 18.8409 81.3201 18.8835 81.1895 18.9233C81.0616 18.9602 80.9153 18.9929 80.7505 19.0213C80.5858 19.0469 80.4252 19.071 80.269 19.0938C80.1127 19.1136 79.9821 19.1307 79.877 19.1449C79.6298 19.1761 79.4039 19.2287 79.1994 19.3026C78.9977 19.3764 78.8358 19.483 78.7136 19.6222C78.5943 19.7585 78.5346 19.9403 78.5346 20.1676C78.5346 20.483 78.6511 20.7216 78.8841 20.8835C79.117 21.0426 79.4139 21.1222 79.7747 21.1222ZM84.4249 22V15.4545H85.6479V16.5199H85.7289C85.8652 16.1591 86.0882 15.8778 86.3979 15.6761C86.7076 15.4716 87.0783 15.3693 87.5101 15.3693C87.9476 15.3693 88.3141 15.4716 88.6096 15.6761C88.9078 15.8807 89.128 16.1619 89.2701 16.5199H89.3382C89.4945 16.1705 89.7431 15.892 90.084 15.6847C90.4249 15.4744 90.8311 15.3693 91.3027 15.3693C91.8965 15.3693 92.3809 15.5554 92.7559 15.9276C93.1337 16.2997 93.3226 16.8608 93.3226 17.6108V22H92.0485V17.7301C92.0485 17.2869 91.9277 16.9659 91.6863 16.767C91.4448 16.5682 91.1564 16.4688 90.8212 16.4688C90.4064 16.4688 90.084 16.5966 89.8539 16.8523C89.6238 17.1051 89.5087 17.4304 89.5087 17.8281V22H88.2388V17.6491C88.2388 17.294 88.128 17.0085 87.9064 16.7926C87.6848 16.5767 87.3965 16.4688 87.0414 16.4688C86.7999 16.4688 86.5769 16.5327 86.3723 16.6605C86.1706 16.7855 86.0073 16.9602 85.8823 17.1847C85.7601 17.4091 85.699 17.669 85.699 17.9645V22H84.4249Z" fill="white"/>
</g>
<defs>
<filter id="filter0_d_2055_6516" x="0.635742" y="0.5" width="108.011" height="36" filterUnits="userSpaceOnUse" color-interpolation-filters="sRGB">
<feFlood flood-opacity="0" result="BackgroundImageFix"/>
<feColorMatrix in="SourceAlpha" type="matrix" values="0 0 0 0 0 0 0 0 0 0 0 0 0 0 0 0 0 0 127 0" result="hardAlpha"/>
<feOffset dy="1"/>
<feGaussianBlur stdDeviation="1"/>
<feColorMatrix type="matrix" values="0 0 0 0 0.0627451 0 0 0 0 0.0941176 0 0 0 0 0.156863 0 0 0 0.05 0"/>
<feBlend mode="normal" in2="BackgroundImageFix" result="effect1_dropShadow_2055_6516"/>
<feBlend mode="normal" in="SourceGraphic" in2="effect1_dropShadow_2055_6516" result="shape"/>
</filter>
</defs>
</svg>
