<svg width="16" height="17" viewBox="0 0 16 17" fill="none" xmlns="http://www.w3.org/2000/svg">
<g clip-path="url(#clip0_2046_4377)">
<path d="M8.36718 2.5C10.2691 2.5 10.5064 2.507 11.2526 2.542C11.9981 2.577 12.5056 2.6939 12.9522 2.8675C13.4142 3.0453 13.8034 3.2861 14.1926 3.6746C14.5485 4.02453 14.824 4.44781 14.9997 4.915C15.1726 5.3609 15.2902 5.86909 15.3252 6.61459C15.3581 7.36079 15.3672 7.59809 15.3672 9.50001C15.3672 11.4019 15.3602 11.6392 15.3252 12.3854C15.2902 13.1309 15.1726 13.6384 14.9997 14.085C14.8245 14.5525 14.5489 14.9758 14.1926 15.3254C13.8426 15.6812 13.4193 15.9566 12.9522 16.1325C12.5063 16.3054 11.9981 16.423 11.2526 16.458C10.5064 16.4909 10.2691 16.5 8.36718 16.5C6.46528 16.5 6.22798 16.493 5.48178 16.458C4.73628 16.423 4.22879 16.3054 3.78219 16.1325C3.31482 15.9572 2.89146 15.6816 2.54179 15.3254C2.18577 14.9755 1.91034 14.5523 1.73469 14.085C1.56109 13.6391 1.44419 13.1309 1.40919 12.3854C1.37629 11.6392 1.36719 11.4019 1.36719 9.50001C1.36719 7.59809 1.37419 7.36079 1.40919 6.61459C1.44419 5.86839 1.56109 5.3616 1.73469 4.915C1.90985 4.44752 2.18535 4.02412 2.54179 3.6746C2.89156 3.31846 3.31489 3.04301 3.78219 2.8675C4.22879 2.6939 4.73558 2.577 5.48178 2.542C6.22798 2.5091 6.46528 2.5 8.36718 2.5ZM8.36718 5.99999C7.43893 5.99999 6.54869 6.36875 5.89231 7.02512C5.23593 7.6815 4.86718 8.57174 4.86718 9.50001C4.86718 10.4283 5.23593 11.3185 5.89231 11.9749C6.54869 12.6312 7.43893 13 8.36718 13C9.29545 13 10.1857 12.6312 10.842 11.9749C11.4984 11.3185 11.8672 10.4283 11.8672 9.50001C11.8672 8.57174 11.4984 7.6815 10.842 7.02512C10.1857 6.36875 9.29545 5.99999 8.36718 5.99999ZM12.9172 5.82499C12.9172 5.59293 12.825 5.37037 12.6609 5.20628C12.4968 5.04219 12.2742 4.95 12.0422 4.95C11.8101 4.95 11.5875 5.04219 11.4234 5.20628C11.2594 5.37037 11.1672 5.59293 11.1672 5.82499C11.1672 6.05706 11.2594 6.27962 11.4234 6.44372C11.5875 6.60781 11.8101 6.69999 12.0422 6.69999C12.2742 6.69999 12.4968 6.60781 12.6609 6.44372C12.825 6.27962 12.9172 6.05706 12.9172 5.82499ZM8.36718 7.39999C8.9241 7.39999 9.45827 7.62124 9.85209 8.01507C10.2459 8.4089 10.4672 8.94304 10.4672 9.50001C10.4672 10.0569 10.2459 10.5911 9.85209 10.9849C9.45827 11.3787 8.9241 11.6 8.36718 11.6C7.81023 11.6 7.27609 11.3787 6.88226 10.9849C6.48843 10.5911 6.26718 10.0569 6.26718 9.50001C6.26718 8.94304 6.48843 8.4089 6.88226 8.01507C7.27609 7.62124 7.81023 7.39999 8.36718 7.39999Z" fill="#B3B3B3"/>
</g>
<defs>
<clipPath id="clip0_2046_4377">
<rect width="16" height="16" fill="white" transform="translate(0 0.5)"/>
</clipPath>
</defs>
</svg>
