<svg width="100" height="37" viewBox="0 0 100 37" fill="none" xmlns="http://www.w3.org/2000/svg">
<g filter="url(#filter0_d_2055_6521)">
<rect x="2.64648" y="1.5" width="95.0623" height="32" rx="8" fill="#006192" fill-opacity="0.2"/>
<rect x="3.14648" y="2" width="94.0623" height="31" rx="7.5" stroke="#006192"/>
<path d="M14.8955 14.7918H18.1951V25.5H14.8955V14.7918ZM16.5764 9.5C17.6348 9.5 18.5064 10.3716 18.5064 11.43C18.5064 12.4883 17.6348 13.3599 16.5764 13.3599C15.5181 13.3599 14.6465 12.4883 14.6465 11.43C14.6465 10.3093 15.5181 9.5 16.5764 9.5ZM20.3119 14.7918H23.4869V16.2237H23.5492C23.985 15.3521 25.1056 14.4805 26.7243 14.4805C30.0862 14.4805 30.7087 16.7218 30.7087 19.5856V25.4377H27.4091V20.2082C27.4091 18.963 27.4091 17.3444 25.6659 17.3444C23.9227 17.3444 23.6737 18.714 23.6737 20.0837V25.3755H20.3741V14.7918H20.3119Z" fill="#006192"/>
<path d="M37.6678 22V13.2727H38.9846V20.8665H42.9391V22H37.6678ZM44.339 22V15.4545H45.6131V22H44.339ZM44.9824 14.4446C44.7608 14.4446 44.5705 14.3707 44.4114 14.223C44.2551 14.0724 44.177 13.8935 44.177 13.6861C44.177 13.4759 44.2551 13.2969 44.4114 13.1491C44.5705 12.9986 44.7608 12.9233 44.9824 12.9233C45.204 12.9233 45.3929 12.9986 45.5492 13.1491C45.7083 13.2969 45.7878 13.4759 45.7878 13.6861C45.7878 13.8935 45.7083 14.0724 45.5492 14.223C45.3929 14.3707 45.204 14.4446 44.9824 14.4446ZM48.6014 18.1136V22H47.3272V15.4545H48.5502V16.5199H48.6312C48.7818 16.1733 49.0176 15.8949 49.3386 15.6847C49.6625 15.4744 50.0701 15.3693 50.5616 15.3693C51.0076 15.3693 51.3983 15.4631 51.7335 15.6506C52.0687 15.8352 52.3287 16.1108 52.5133 16.4773C52.698 16.8437 52.7903 17.2969 52.7903 17.8366V22H51.5162V17.9901C51.5162 17.5156 51.3926 17.1449 51.1454 16.8778C50.8983 16.608 50.5588 16.473 50.127 16.473C49.8315 16.473 49.5687 16.5369 49.3386 16.6648C49.1113 16.7926 48.9309 16.9801 48.7974 17.2273C48.6667 17.4716 48.6014 17.767 48.6014 18.1136ZM55.671 19.7798L55.6625 18.2244H55.8841L58.492 15.4545H60.0176L57.0431 18.608H56.8429L55.671 19.7798ZM54.4991 22V13.2727H55.7733V22H54.4991ZM58.6326 22L56.2889 18.8892L57.1667 17.9986L60.1966 22H58.6326ZM63.7303 22.1321C63.0854 22.1321 62.53 21.9943 62.0641 21.7188C61.601 21.4403 61.2431 21.0497 60.9902 20.5469C60.7402 20.0412 60.6152 19.4489 60.6152 18.7699C60.6152 18.0994 60.7402 17.5085 60.9902 16.9972C61.2431 16.4858 61.5953 16.0866 62.0471 15.7997C62.5016 15.5128 63.0328 15.3693 63.6408 15.3693C64.0101 15.3693 64.3681 15.4304 64.7147 15.5526C65.0613 15.6747 65.3723 15.8665 65.6479 16.1278C65.9235 16.3892 66.1408 16.7287 66.2999 17.1463C66.459 17.5611 66.5385 18.0653 66.5385 18.6591V19.1108H61.3354V18.1562H65.29C65.29 17.821 65.2218 17.5241 65.0854 17.2656C64.949 17.0043 64.7573 16.7983 64.5101 16.6477C64.2658 16.4972 63.9789 16.4219 63.6493 16.4219C63.2914 16.4219 62.9789 16.5099 62.7118 16.6861C62.4476 16.8594 62.2431 17.0866 62.0982 17.3679C61.9561 17.6463 61.8851 17.9489 61.8851 18.2756V19.0213C61.8851 19.4588 61.9618 19.831 62.1152 20.1378C62.2715 20.4446 62.4888 20.679 62.7672 20.8409C63.0456 21 63.3709 21.0795 63.7431 21.0795C63.9846 21.0795 64.2047 21.0455 64.4036 20.9773C64.6025 20.9062 64.7743 20.8011 64.9192 20.6619C65.0641 20.5227 65.1749 20.3509 65.2516 20.1463L66.4576 20.3636C66.361 20.7187 66.1877 21.0298 65.9377 21.2969C65.6905 21.5611 65.3794 21.767 65.0044 21.9148C64.6323 22.0597 64.2076 22.1321 63.7303 22.1321ZM70.4025 22.1278C69.8741 22.1278 69.4025 21.9929 68.9877 21.723C68.5758 21.4503 68.252 21.0625 68.0162 20.5597C67.7832 20.054 67.6667 19.4474 67.6667 18.7401C67.6667 18.0327 67.7846 17.4276 68.0204 16.9247C68.2591 16.4219 68.5858 16.0369 69.0005 15.7699C69.4153 15.5028 69.8855 15.3693 70.411 15.3693C70.8173 15.3693 71.144 15.4375 71.3912 15.5739C71.6412 15.7074 71.8343 15.8636 71.9707 16.0426C72.1099 16.2216 72.2179 16.3793 72.2946 16.5156H72.3713V13.2727H73.6454V22H72.4011V20.9815H72.2946C72.2179 21.1207 72.1071 21.2798 71.9622 21.4588C71.8201 21.6378 71.6241 21.794 71.3741 21.9276C71.1241 22.0611 70.8002 22.1278 70.4025 22.1278ZM70.6838 21.0412C71.0502 21.0412 71.3599 20.9446 71.6127 20.7514C71.8684 20.5554 72.0616 20.2841 72.1923 19.9375C72.3258 19.5909 72.3926 19.1875 72.3926 18.7273C72.3926 18.2727 72.3272 17.875 72.1966 17.5341C72.0659 17.1932 71.8741 16.9276 71.6213 16.7372C71.3684 16.5469 71.0559 16.4517 70.6838 16.4517C70.3002 16.4517 69.9806 16.5511 69.725 16.75C69.4693 16.9489 69.2761 17.2202 69.1454 17.5639C69.0176 17.9077 68.9537 18.2955 68.9537 18.7273C68.9537 19.1648 69.019 19.5582 69.1497 19.9077C69.2804 20.2571 69.4735 20.5341 69.7292 20.7386C69.9877 20.9403 70.3059 21.0412 70.6838 21.0412ZM76.883 13.2727V22H75.5662V13.2727H76.883ZM79.9725 18.1136V22H78.6983V15.4545H79.9213V16.5199H80.0023C80.1529 16.1733 80.3887 15.8949 80.7097 15.6847C81.0336 15.4744 81.4412 15.3693 81.9327 15.3693C82.3787 15.3693 82.7694 15.4631 83.1046 15.6506C83.4398 15.8352 83.6998 16.1108 83.8844 16.4773C84.0691 16.8437 84.1614 17.2969 84.1614 17.8366V22H82.8873V17.9901C82.8873 17.5156 82.7637 17.1449 82.5165 16.8778C82.2694 16.608 81.9299 16.473 81.498 16.473C81.2026 16.473 80.9398 16.5369 80.7097 16.6648C80.4824 16.7926 80.302 16.9801 80.1685 17.2273C80.0378 17.4716 79.9725 17.767 79.9725 18.1136Z" fill="white"/>
</g>
<defs>
<filter id="filter0_d_2055_6521" x="0.646484" y="0.5" width="99.0625" height="36" filterUnits="userSpaceOnUse" color-interpolation-filters="sRGB">
<feFlood flood-opacity="0" result="BackgroundImageFix"/>
<feColorMatrix in="SourceAlpha" type="matrix" values="0 0 0 0 0 0 0 0 0 0 0 0 0 0 0 0 0 0 127 0" result="hardAlpha"/>
<feOffset dy="1"/>
<feGaussianBlur stdDeviation="1"/>
<feColorMatrix type="matrix" values="0 0 0 0 0.0627451 0 0 0 0 0.0941176 0 0 0 0 0.156863 0 0 0 0.05 0"/>
<feBlend mode="normal" in2="BackgroundImageFix" result="effect1_dropShadow_2055_6521"/>
<feBlend mode="normal" in="SourceGraphic" in2="effect1_dropShadow_2055_6521" result="shape"/>
</filter>
</defs>
</svg>
