<svg width="19" height="17" viewBox="0 0 19 17" fill="none" xmlns="http://www.w3.org/2000/svg">
<path d="M5.47764 3.55625C5.47743 3.96879 5.31336 4.36434 5.0215 4.6559C4.72965 4.94747 4.33393 5.11115 3.9214 5.11094C3.50885 5.11074 3.1133 4.94666 2.82174 4.65481C2.53017 4.36295 2.36649 3.96723 2.3667 3.55469C2.36691 3.14216 2.53098 2.7466 2.82284 2.45504C3.11469 2.16348 3.51041 1.99979 3.92295 2C4.33548 2.00021 4.73104 2.16428 5.02261 2.45614C5.31416 2.74799 5.47785 3.14371 5.47764 3.55625ZM5.52431 6.26277H2.41337V16H5.52431V6.26277ZM10.4396 6.26277H7.34421V16H10.4085V10.8903C10.4085 8.04379 14.1183 7.77936 14.1183 10.8903V16H17.1903V9.83256C17.1903 5.03394 11.6995 5.21282 10.4085 7.56936L10.4396 6.26277Z" fill="#B3B3B3"/>
</svg>
