<svg width="16" height="17" viewBox="0 0 16 17" fill="none" xmlns="http://www.w3.org/2000/svg">
<g clip-path="url(#clip0_2046_4380)">
<path fill-rule="evenodd" clip-rule="evenodd" d="M14.8049 3.82775C15.1086 3.52401 15.1086 3.03155 14.8049 2.7278C14.5012 2.42407 14.0087 2.42407 13.705 2.7278L9.08116 7.35161L5.75649 2.81784C5.60997 2.61804 5.37703 2.5 5.12927 2.5H1.81049C1.5174 2.5 1.24919 2.66476 1.11671 2.92621C0.984228 3.18765 1.00996 3.50137 1.18328 3.73772L6.05357 10.3792L1.26052 15.1723C0.956781 15.476 0.956781 15.9685 1.26052 16.2722C1.56426 16.5759 2.05672 16.5759 2.36047 16.2722L6.98427 11.6484L10.309 16.1822C10.4555 16.3819 10.6884 16.5 10.9362 16.5H14.2549C14.548 16.5 14.8163 16.3353 14.9487 16.0738C15.0812 15.8124 15.0555 15.4986 14.8821 15.2622L10.0118 8.6208L14.8049 3.82775ZM8.32073 8.94506C8.34476 8.98511 8.37268 9.02338 8.40457 9.05947L12.7201 14.9444H11.3303L3.34534 4.05556H4.73514L8.32073 8.94506Z" fill="#B3B3B3"/>
</g>
<defs>
<clipPath id="clip0_2046_4380">
<rect width="16" height="16" fill="white" transform="translate(0 0.5)"/>
</clipPath>
</defs>
</svg>
