<svg width="104" height="37" viewBox="0 0 104 37" fill="none" xmlns="http://www.w3.org/2000/svg">
<g filter="url(#filter0_d_2055_6527)">
<rect x="2.70898" y="1.5" width="98.656" height="32" rx="8" fill="#1A1A1A" fill-opacity="0.2"/>
<rect x="3.20898" y="2" width="97.656" height="31" rx="7.5" stroke="#3B3B3B"/>
<path d="M24.0264 16.2747L29.8546 9.5H28.4735L23.413 15.3826L19.3711 9.5H14.709L20.821 18.3954L14.709 25.5H16.0901L21.4341 19.2875L25.7029 25.5H30.365L24.0258 16.2747H24.0264ZM22.1346 18.4738L21.5154 17.588L16.5877 10.5397H18.7093L22.6859 16.2277L23.3051 17.1134L28.4741 24.5074H26.3525L22.1346 18.4738Z" fill="white"/>
<path d="M38.2402 13.2727L40.3283 16.6861H40.3965L42.4846 13.2727H44.0101L41.2914 17.6364L44.0272 22H42.4931L40.3965 18.6335H40.3283L38.2317 22H36.6976L39.4803 17.6364L36.7147 13.2727H38.2402ZM48.5378 12.8636L45.7253 23.3125H44.5875L47.4 12.8636H48.5378ZM49.2921 14.4062V13.2727H56.0463V14.4062H53.3233V22H52.0108V14.4062H49.2921ZM58.1056 22L56.1795 15.4545H57.4963L58.7789 20.2614H58.8429L60.1298 15.4545H61.4466L62.725 20.2401H62.7889L64.063 15.4545H65.3798L63.4579 22H62.1582L60.8287 17.2741H60.7306L59.4011 22H58.1056ZM66.589 22V15.4545H67.8631V22H66.589ZM67.2324 14.4446C67.0108 14.4446 66.8205 14.3707 66.6614 14.223C66.5051 14.0724 66.427 13.8935 66.427 13.6861C66.427 13.4759 66.5051 13.2969 66.6614 13.1491C66.8205 12.9986 67.0108 12.9233 67.2324 12.9233C67.454 12.9233 67.6429 12.9986 67.7992 13.1491C67.9583 13.2969 68.0378 13.4759 68.0378 13.6861C68.0378 13.8935 67.9583 14.0724 67.7992 14.223C67.6429 14.3707 67.454 14.4446 67.2324 14.4446ZM72.6326 15.4545V16.4773H69.0574V15.4545H72.6326ZM70.0162 13.8864H71.2903V20.0781C71.2903 20.3253 71.3272 20.5114 71.4011 20.6364C71.475 20.7585 71.5701 20.8423 71.6866 20.8878C71.8059 20.9304 71.9352 20.9517 72.0744 20.9517C72.1767 20.9517 72.2662 20.9446 72.3429 20.9304C72.4196 20.9162 72.4792 20.9048 72.5218 20.8963L72.752 21.9489C72.6781 21.9773 72.573 22.0057 72.4366 22.0341C72.3002 22.0653 72.1298 22.0824 71.9252 22.0852C71.59 22.0909 71.2775 22.0312 70.9877 21.9062C70.698 21.7812 70.4636 21.5881 70.2846 21.3267C70.1056 21.0653 70.0162 20.7372 70.0162 20.3423V13.8864ZM77.0975 15.4545V16.4773H73.5222V15.4545H77.0975ZM74.481 13.8864H75.7551V20.0781C75.7551 20.3253 75.7921 20.5114 75.8659 20.6364C75.9398 20.7585 76.035 20.8423 76.1515 20.8878C76.2708 20.9304 76.4 20.9517 76.5392 20.9517C76.6415 20.9517 76.731 20.9446 76.8077 20.9304C76.8844 20.9162 76.9441 20.9048 76.9867 20.8963L77.2168 21.9489C77.1429 21.9773 77.0378 22.0057 76.9015 22.0341C76.7651 22.0653 76.5946 22.0824 76.3901 22.0852C76.0549 22.0909 75.7424 22.0312 75.4526 21.9062C75.1628 21.7812 74.9284 21.5881 74.7495 21.3267C74.5705 21.0653 74.481 20.7372 74.481 20.3423V13.8864ZM81.2576 22.1321C80.6127 22.1321 80.0574 21.9943 79.5914 21.7188C79.1284 21.4403 78.7704 21.0497 78.5176 20.5469C78.2676 20.0412 78.1426 19.4489 78.1426 18.7699C78.1426 18.0994 78.2676 17.5085 78.5176 16.9972C78.7704 16.4858 79.1227 16.0866 79.5744 15.7997C80.0289 15.5128 80.5602 15.3693 81.1681 15.3693C81.5375 15.3693 81.8954 15.4304 82.242 15.5526C82.5886 15.6747 82.8997 15.8665 83.1752 16.1278C83.4508 16.3892 83.6681 16.7287 83.8272 17.1463C83.9863 17.5611 84.0659 18.0653 84.0659 18.6591V19.1108H78.8627V18.1562H82.8173C82.8173 17.821 82.7491 17.5241 82.6127 17.2656C82.4764 17.0043 82.2846 16.7983 82.0375 16.6477C81.7931 16.4972 81.5062 16.4219 81.1767 16.4219C80.8187 16.4219 80.5062 16.5099 80.2392 16.6861C79.975 16.8594 79.7704 17.0866 79.6255 17.3679C79.4835 17.6463 79.4125 17.9489 79.4125 18.2756V19.0213C79.4125 19.4588 79.4892 19.831 79.6426 20.1378C79.7988 20.4446 80.0162 20.679 80.2946 20.8409C80.573 21 80.8983 21.0795 81.2704 21.0795C81.5119 21.0795 81.7321 21.0455 81.9309 20.9773C82.1298 20.9062 82.3017 20.8011 82.4466 20.6619C82.5914 20.5227 82.7022 20.3509 82.7789 20.1463L83.9849 20.3636C83.8883 20.7187 83.715 21.0298 83.465 21.2969C83.2179 21.5611 82.9068 21.767 82.5318 21.9148C82.1596 22.0597 81.7349 22.1321 81.2576 22.1321ZM85.4796 22V15.4545H86.7111V16.4943H86.7793C86.8986 16.142 87.1088 15.8651 87.41 15.6634C87.714 15.4588 88.0577 15.3565 88.4412 15.3565C88.5208 15.3565 88.6145 15.3594 88.7225 15.3651C88.8333 15.3707 88.9199 15.3778 88.9824 15.3864V16.6051C88.9313 16.5909 88.8404 16.5753 88.7097 16.5582C88.579 16.5384 88.4483 16.5284 88.3176 16.5284C88.0165 16.5284 87.748 16.5923 87.5123 16.7202C87.2793 16.8452 87.0946 17.0199 86.9583 17.2443C86.8219 17.4659 86.7537 17.7187 86.7537 18.0028V22H85.4796Z" fill="white"/>
</g>
<defs>
<filter id="filter0_d_2055_6527" x="0.708984" y="0.5" width="102.656" height="36" filterUnits="userSpaceOnUse" color-interpolation-filters="sRGB">
<feFlood flood-opacity="0" result="BackgroundImageFix"/>
<feColorMatrix in="SourceAlpha" type="matrix" values="0 0 0 0 0 0 0 0 0 0 0 0 0 0 0 0 0 0 127 0" result="hardAlpha"/>
<feOffset dy="1"/>
<feGaussianBlur stdDeviation="1"/>
<feColorMatrix type="matrix" values="0 0 0 0 0.0627451 0 0 0 0 0.0941176 0 0 0 0 0.156863 0 0 0 0.05 0"/>
<feBlend mode="normal" in2="BackgroundImageFix" result="effect1_dropShadow_2055_6527"/>
<feBlend mode="normal" in="SourceGraphic" in2="effect1_dropShadow_2055_6527" result="shape"/>
</filter>
</defs>
</svg>
