<svg width="123" height="41" viewBox="0 0 123 41" fill="none" xmlns="http://www.w3.org/2000/svg">
<rect x="1.31875" y="0.50625" width="120.488" height="39.4875" rx="6.58125" fill="black"/>
<rect x="1.31875" y="0.50625" width="120.488" height="39.4875" rx="6.58125" stroke="#3B3B3B" stroke-width="1.0125"/>
<path d="M25.891 20.5546C25.9129 18.8526 26.8269 17.2421 28.277 16.3506C27.3622 15.0442 25.83 14.2158 24.2359 14.166C22.5357 13.9875 20.8874 15.1834 20.021 15.1834C19.1378 15.1834 17.8039 14.1837 16.3674 14.2132C14.495 14.2737 12.7495 15.3383 11.8386 16.9752C9.88039 20.3655 11.341 25.348 13.2168 28.0885C14.1553 29.4304 15.2521 30.9294 16.6873 30.8762C18.0917 30.818 18.6162 29.9807 20.3114 29.9807C21.9909 29.9807 22.483 30.8762 23.9473 30.8424C25.4543 30.818 26.4037 29.4945 27.3093 28.1399C27.9836 27.1837 28.5025 26.127 28.8467 25.0087C27.0757 24.2597 25.893 22.4775 25.891 20.5546Z" fill="white"/>
<path d="M23.1252 12.3637C23.9468 11.3773 24.3516 10.1095 24.2536 8.82947C22.9983 8.96132 21.8387 9.56128 21.0059 10.5098C20.1916 11.4366 19.7678 12.6821 19.8479 13.9132C21.1037 13.9262 22.3382 13.3425 23.1252 12.3637Z" fill="white"/>
<path d="M83.3575 19.4409V21.7605H81.9035V23.2817H83.3575V28.4505C83.3575 30.2155 84.1559 30.9215 86.1646 30.9215C86.5176 30.9215 86.8538 30.8794 87.148 30.829V29.3246C86.8958 29.3498 86.7361 29.3666 86.4588 29.3666C85.5595 29.3666 85.1645 28.9464 85.1645 27.9883V23.2817H87.148V21.7605H85.1645V19.4409H83.3575Z" fill="white"/>
<path d="M92.265 31.0475C94.9376 31.0475 96.5765 29.2574 96.5765 26.2906C96.5765 23.3406 94.9292 21.542 92.265 21.542C89.5923 21.542 87.945 23.3406 87.945 26.2906C87.945 29.2574 89.5839 31.0475 92.265 31.0475ZM92.265 29.4423C90.6933 29.4423 89.8109 28.2908 89.8109 26.2906C89.8109 24.3071 90.6933 23.1473 92.265 23.1473C93.8282 23.1473 94.7191 24.3071 94.7191 26.2906C94.7191 28.2824 93.8282 29.4423 92.265 29.4423Z" fill="white"/>
<path d="M97.9787 30.871H99.7857V25.4669C99.7857 24.181 100.752 23.3154 102.122 23.3154C102.442 23.3154 102.979 23.3742 103.131 23.4246V21.6429C102.937 21.5924 102.593 21.5672 102.324 21.5672C101.13 21.5672 100.113 22.2228 99.8529 23.1221H99.7185V21.7185H97.9787V30.871Z" fill="white"/>
<path d="M107.617 23.08C108.954 23.08 109.828 24.0129 109.87 25.4501H105.247C105.348 24.0213 106.281 23.08 107.617 23.08ZM109.861 28.4001C109.525 29.1145 108.777 29.5095 107.685 29.5095C106.239 29.5095 105.306 28.4926 105.247 26.8873V26.7864H111.71V26.1561C111.71 23.2817 110.172 21.542 107.626 21.542C105.046 21.542 103.407 23.3994 103.407 26.3242C103.407 29.249 105.012 31.0475 107.634 31.0475C109.727 31.0475 111.189 30.039 111.601 28.4001H109.861Z" fill="white"/>
<path d="M71.5076 27.4911C71.647 29.7386 73.5199 31.1759 76.3074 31.1759C79.2866 31.1759 81.1508 29.6689 81.1508 27.2647C81.1508 25.3744 80.088 24.329 77.5096 23.728L76.1245 23.3882C74.4868 23.005 73.8248 22.491 73.8248 21.5938C73.8248 20.4613 74.8527 19.7209 76.3945 19.7209C77.858 19.7209 78.8685 20.4439 79.0514 21.6025H80.9504C80.8372 19.4857 78.973 17.9961 76.4207 17.9961C73.6767 17.9961 71.8474 19.4857 71.8474 21.7244C71.8474 23.5712 72.884 24.6688 75.1576 25.2001L76.7778 25.5921C78.4416 25.9841 79.1734 26.5591 79.1734 27.5173C79.1734 28.6323 78.0235 29.4424 76.4555 29.4424C74.7743 29.4424 73.607 28.6846 73.4415 27.4911H71.5076Z" fill="white"/>
<path d="M52.7892 21.5672C51.5453 21.5672 50.4696 22.1891 49.9149 23.2313H49.7804V21.7185H48.0406V33.9135H49.8476V29.4843H49.9905C50.4696 30.4508 51.5033 31.0223 52.806 31.0223C55.1173 31.0223 56.5881 29.1985 56.5881 26.2906C56.5881 23.3826 55.1173 21.5672 52.7892 21.5672ZM52.2765 29.4002C50.7637 29.4002 49.814 28.2068 49.814 26.299C49.814 24.3827 50.7637 23.1893 52.2849 23.1893C53.8146 23.1893 54.7307 24.3575 54.7307 26.2906C54.7307 28.232 53.8146 29.4002 52.2765 29.4002Z" fill="white"/>
<path d="M62.911 21.5672C61.6671 21.5672 60.5913 22.1891 60.0366 23.2313H59.9021V21.7185H58.1624V33.9135H59.9694V29.4843H60.1122C60.5913 30.4508 61.6251 31.0223 62.9278 31.0223C65.239 31.0223 66.7098 29.1985 66.7098 26.2906C66.7098 23.3826 65.239 21.5672 62.911 21.5672ZM62.3983 29.4002C60.8855 29.4002 59.9358 28.2068 59.9358 26.299C59.9358 24.3827 60.8855 23.1893 62.4067 23.1893C63.9363 23.1893 64.8524 24.3575 64.8524 26.2906C64.8524 28.232 63.9363 29.4002 62.3983 29.4002Z" fill="white"/>
<path d="M44.7986 30.871H46.8718L42.3334 18.301H40.234L35.6956 30.871H37.6991L38.8577 27.5347H43.6488L44.7986 30.871ZM41.1835 20.5833H41.3316L43.1522 25.897H39.3542L41.1835 20.5833Z" fill="white"/>
<path d="M36.9092 8.81985V14.8837H39.0986C40.9055 14.8837 41.9519 13.7701 41.9519 11.8329C41.9519 9.92504 40.8971 8.81985 39.0986 8.81985H36.9092ZM37.8505 9.67711H38.9935C40.25 9.67711 40.9938 10.4755 40.9938 11.8455C40.9938 13.2364 40.2626 14.0265 38.9935 14.0265H37.8505V9.67711Z" fill="white"/>
<path d="M45.1566 14.972C46.4929 14.972 47.3123 14.0769 47.3123 12.5935C47.3123 11.1185 46.4887 10.2192 45.1566 10.2192C43.8202 10.2192 42.9966 11.1185 42.9966 12.5935C42.9966 14.0769 43.816 14.972 45.1566 14.972ZM45.1566 14.1693C44.3707 14.1693 43.9295 13.5936 43.9295 12.5935C43.9295 11.6017 44.3707 11.0218 45.1566 11.0218C45.9382 11.0218 46.3836 11.6017 46.3836 12.5935C46.3836 13.5894 45.9382 14.1693 45.1566 14.1693Z" fill="white"/>
<path d="M54.2906 10.3074H53.3871L52.5719 13.7995H52.5004L51.5591 10.3074H50.6935L49.7522 13.7995H49.6849L48.8655 10.3074H47.9494L49.2101 14.8837H50.1388L51.0801 11.5135H51.1515L52.097 14.8837H53.0341L54.2906 10.3074Z" fill="white"/>
<path d="M55.3311 14.8837H56.2346V12.2069C56.2346 11.4925 56.659 11.047 57.3272 11.047C57.9953 11.047 58.3147 11.4126 58.3147 12.148V14.8837H59.2182V11.9211C59.2182 10.8327 58.6551 10.2192 57.6339 10.2192C56.9448 10.2192 56.4909 10.526 56.2682 11.0344H56.201V10.3074H55.3311V14.8837Z" fill="white"/>
<path d="M60.6411 14.8837H61.5446V8.52148H60.6411V14.8837Z" fill="white"/>
<path d="M64.9425 14.972C66.2788 14.972 67.0983 14.0769 67.0983 12.5935C67.0983 11.1185 66.2746 10.2192 64.9425 10.2192C63.6062 10.2192 62.7826 11.1185 62.7826 12.5935C62.7826 14.0769 63.602 14.972 64.9425 14.972ZM64.9425 14.1693C64.1567 14.1693 63.7155 13.5936 63.7155 12.5935C63.7155 11.6017 64.1567 11.0218 64.9425 11.0218C65.7241 11.0218 66.1696 11.6017 66.1696 12.5935C66.1696 13.5894 65.7241 14.1693 64.9425 14.1693Z" fill="white"/>
<path d="M69.7903 14.1988C69.2986 14.1988 68.9414 13.9592 68.9414 13.5474C68.9414 13.144 69.2272 12.9297 69.8575 12.8876L70.9753 12.8162V13.1986C70.9753 13.7659 70.471 14.1988 69.7903 14.1988ZM69.5591 14.9594C70.1601 14.9594 70.6601 14.6988 70.9333 14.2408H71.0047V14.8837H71.8746V11.7572C71.8746 10.7907 71.2274 10.2192 70.0802 10.2192C69.0423 10.2192 68.3027 10.7235 68.2102 11.5093H69.0843C69.1851 11.1857 69.5339 11.0008 70.0382 11.0008C70.6559 11.0008 70.9753 11.274 70.9753 11.7572V12.1522L69.7356 12.2237C68.6472 12.2909 68.0337 12.7658 68.0337 13.5894C68.0337 14.4257 68.6767 14.9594 69.5591 14.9594Z" fill="white"/>
<path d="M74.9406 14.9594C75.5709 14.9594 76.1046 14.661 76.3777 14.1609H76.4492V14.8837H77.3149V8.52148H76.4114V11.0344H76.3441C76.0962 10.5302 75.5667 10.2318 74.9406 10.2318C73.7849 10.2318 73.0411 11.1479 73.0411 12.5935C73.0411 14.0433 73.7765 14.9594 74.9406 14.9594ZM75.1969 11.0428C75.9533 11.0428 76.4282 11.6438 76.4282 12.5977C76.4282 13.5558 75.9575 14.1483 75.1969 14.1483C74.4321 14.1483 73.974 13.5642 73.974 12.5935C73.974 11.6312 74.4363 11.0428 75.1969 11.0428Z" fill="white"/>
<path d="M83.1737 14.972C84.51 14.972 85.3294 14.0769 85.3294 12.5935C85.3294 11.1185 84.5058 10.2192 83.1737 10.2192C81.8373 10.2192 81.0137 11.1185 81.0137 12.5935C81.0137 14.0769 81.8331 14.972 83.1737 14.972ZM83.1737 14.1693C82.3878 14.1693 81.9466 13.5936 81.9466 12.5935C81.9466 11.6017 82.3878 11.0218 83.1737 11.0218C83.9553 11.0218 84.4007 11.6017 84.4007 12.5935C84.4007 13.5894 83.9553 14.1693 83.1737 14.1693Z" fill="white"/>
<path d="M86.5254 14.8837H87.4289V12.2069C87.4289 11.4925 87.8533 11.047 88.5215 11.047C89.1896 11.047 89.509 11.4126 89.509 12.148V14.8837H90.4125V11.9211C90.4125 10.8327 89.8494 10.2192 88.8282 10.2192C88.1391 10.2192 87.6852 10.526 87.4625 11.0344H87.3953V10.3074H86.5254V14.8837Z" fill="white"/>
<path d="M94.5736 9.16863V10.3285H93.8466V11.0891H94.5736V13.6735C94.5736 14.5559 94.9728 14.9089 95.9771 14.9089C96.1536 14.9089 96.3217 14.8879 96.4688 14.8627V14.1105C96.3427 14.1231 96.2629 14.1315 96.1242 14.1315C95.6746 14.1315 95.4771 13.9214 95.4771 13.4423V11.0891H96.4688V10.3285H95.4771V9.16863H94.5736Z" fill="white"/>
<path d="M97.6816 14.8837H98.5851V12.2111C98.5851 11.5177 98.9969 11.0513 99.7365 11.0513C100.375 11.0513 100.716 11.4211 100.716 12.1522V14.8837H101.619V11.9295C101.619 10.8411 101.018 10.2234 100.043 10.2234C99.3541 10.2234 98.8708 10.5302 98.6481 11.0428H98.5767V8.52148H97.6816V14.8837Z" fill="white"/>
<path d="M104.878 10.9882C105.547 10.9882 105.984 11.4547 106.005 12.1733H103.693C103.744 11.4589 104.21 10.9882 104.878 10.9882ZM106 13.6483C105.832 14.0054 105.458 14.203 104.912 14.203C104.189 14.203 103.723 13.6945 103.693 12.8918V12.8414H106.925V12.5262C106.925 11.0891 106.156 10.2192 104.883 10.2192C103.592 10.2192 102.773 11.1479 102.773 12.6103C102.773 14.0727 103.576 14.972 104.887 14.972C105.933 14.972 106.664 14.4677 106.87 13.6483H106Z" fill="white"/>
</svg>
