<svg width="137" height="41" viewBox="0 0 137 41" fill="none" xmlns="http://www.w3.org/2000/svg">
<rect x="0.81875" y="0.50625" width="135.675" height="39.4875" rx="4.55625" fill="black"/>
<rect x="0.81875" y="0.50625" width="135.675" height="39.4875" rx="4.55625" stroke="#3B3B3B" stroke-width="1.0125"/>
<g filter="url(#filter0_ii_2046_4002)">
<path d="M10.8789 7.63226C10.5843 7.94411 10.4102 8.42809 10.4102 9.05483V31.4473C10.4102 32.075 10.5843 32.558 10.8789 32.8698L10.9539 32.9427L23.4977 20.3989V20.251V20.1032L10.9539 7.55835L10.8789 7.63226Z" fill="url(#paint0_linear_2046_4002)"/>
<path d="M27.6782 24.5815L23.4976 20.3989V20.2511V20.1033L27.6792 15.9216L27.7733 15.9753L32.7275 18.79C34.142 19.594 34.142 20.9092 32.7275 21.7141L27.7733 24.5289L27.6782 24.5815Z" fill="url(#paint1_linear_2046_4002)"/>
<g filter="url(#filter1_i_2046_4002)">
<path d="M27.7735 24.5279L23.4967 20.2511L10.8789 32.8699C11.3447 33.364 12.1152 33.4247 12.9829 32.9327L27.7735 24.5279Z" fill="url(#paint2_linear_2046_4002)"/>
</g>
<path d="M27.7735 15.9743L12.9829 7.5705C12.1152 7.07741 11.3447 7.13918 10.8789 7.63328L23.4977 20.2521L27.7735 15.9743Z" fill="url(#paint3_linear_2046_4002)"/>
</g>
<path d="M69.3001 22.0231C66.9187 22.0231 64.9777 23.8344 64.9777 26.3292C64.9777 28.8088 66.9187 30.6354 69.3001 30.6354C71.6825 30.6354 73.6235 28.8088 73.6235 26.3292C73.6225 23.8344 71.6815 22.0231 69.3001 22.0231ZM69.3001 28.9405C67.995 28.9405 66.8701 27.8642 66.8701 26.3302C66.8701 24.7801 67.996 23.72 69.3001 23.72C70.6052 23.72 71.7301 24.7801 71.7301 26.3302C71.7301 27.8632 70.6052 28.9405 69.3001 28.9405ZM59.8697 22.0231C57.4883 22.0231 55.5473 23.8344 55.5473 26.3292C55.5473 28.8088 57.4883 30.6354 59.8697 30.6354C62.2521 30.6354 64.1931 28.8088 64.1931 26.3292C64.1931 23.8344 62.2521 22.0231 59.8697 22.0231ZM59.8697 28.9405C58.5646 28.9405 57.4397 27.8642 57.4397 26.3302C57.4397 24.7801 58.5656 23.72 59.8697 23.72C61.1748 23.72 62.2997 24.7801 62.2997 26.3302C62.3007 27.8632 61.1748 28.9405 59.8697 28.9405ZM48.6532 23.3454V25.1719H53.0252C52.8946 26.1996 52.5523 26.9499 52.0299 27.4713C51.394 28.1072 50.3988 28.8088 48.6532 28.8088C45.962 28.8088 43.858 26.639 43.858 23.9478C43.858 21.2566 45.962 19.0868 48.6532 19.0868C50.1051 19.0868 51.1652 19.6579 51.9479 20.3919L53.2368 19.103C52.1433 18.0591 50.6924 17.2603 48.6532 17.2603C44.9667 17.2603 41.8674 20.2613 41.8674 23.9478C41.8674 27.6343 44.9667 30.6354 48.6532 30.6354C50.6428 30.6354 52.1443 29.9823 53.3178 28.7592C54.5247 27.5523 54.9003 25.8554 54.9003 24.4855C54.9003 24.0622 54.8679 23.6704 54.8021 23.3444H48.6532V23.3454ZM94.5276 24.7639C94.1691 23.802 93.0756 22.0231 90.841 22.0231C88.6227 22.0231 86.7789 23.7686 86.7789 26.3292C86.7789 28.743 88.6065 30.6354 91.0527 30.6354C93.026 30.6354 94.1681 29.4285 94.642 28.7268L93.1738 27.7477C92.6848 28.4656 92.0155 28.9384 91.0527 28.9384C90.0908 28.9384 89.4053 28.498 88.9649 27.6333L94.723 25.2519L94.5276 24.7639ZM88.6551 26.1996C88.6065 24.5351 89.944 23.6876 90.9069 23.6876C91.6571 23.6876 92.293 24.0632 92.5056 24.6009L88.6551 26.1996ZM83.9743 30.3752H85.8656V17.7179H83.9743V30.3752ZM80.874 22.9859H80.8092C80.385 22.4797 79.5689 22.0231 78.5422 22.0231C76.3886 22.0231 74.4153 23.9154 74.4153 26.3464C74.4153 28.7602 76.3886 30.6364 78.5422 30.6364C79.5699 30.6364 80.385 30.1798 80.8092 29.6583H80.874V30.278C80.874 31.9253 79.9931 32.8062 78.5746 32.8062C77.4163 32.8062 76.6984 31.9749 76.4048 31.2733L74.7575 31.9587C75.2303 33.0998 76.4858 34.5031 78.5746 34.5031C80.793 34.5031 82.6692 33.198 82.6692 30.0167V22.2853H80.875V22.9859H80.874ZM78.7052 28.9405C77.4001 28.9405 76.3076 27.847 76.3076 26.3464C76.3076 24.8287 77.4001 23.72 78.7052 23.72C79.9931 23.72 81.0046 24.8287 81.0046 26.3464C81.0046 27.847 79.9931 28.9405 78.7052 28.9405ZM103.391 17.7179H98.8641V30.3752H100.752V25.58H103.39C105.484 25.58 107.543 24.0643 107.543 21.6494C107.543 19.2346 105.485 17.7179 103.391 17.7179ZM103.44 23.8182H100.752V19.4797H103.44C104.852 19.4797 105.654 20.6491 105.654 21.6494C105.654 22.6295 104.852 23.8182 103.44 23.8182ZM115.116 22.0008C113.748 22.0008 112.331 22.6032 111.745 23.9387L113.422 24.6383C113.78 23.9387 114.448 23.7099 115.148 23.7099C116.125 23.7099 117.118 24.2961 117.135 25.338V25.4686C116.792 25.2732 116.059 24.9806 115.164 24.9806C113.357 24.9806 111.516 25.9738 111.516 27.8297C111.516 29.5237 112.999 30.6141 114.659 30.6141C115.929 30.6141 116.629 30.0441 117.069 29.3758H117.134V30.3529H118.958V25.5C118.959 23.2543 117.28 22.0008 115.116 22.0008ZM114.887 28.9374C114.269 28.9374 113.406 28.6276 113.406 27.8621C113.406 26.8851 114.481 26.5105 115.409 26.5105C116.239 26.5105 116.63 26.6897 117.135 26.9337C116.988 28.1072 115.978 28.9374 114.887 28.9374ZM125.602 22.2772L123.436 27.7649H123.372L121.124 22.2772H119.089L122.459 29.9469L120.538 34.2136H122.508L127.703 22.2772H125.602ZM108.586 30.3752H110.474V17.7179H108.586V30.3752Z" fill="white"/>
<path d="M48.3232 10.371C48.3232 11.2195 48.0721 11.8948 47.5689 12.399C46.9979 12.9984 46.2527 13.2981 45.3374 13.2981C44.4605 13.2981 43.7143 12.9944 43.1018 12.3869C42.4882 11.7784 42.1814 11.0251 42.1814 10.126C42.1814 9.22585 42.4882 8.47255 43.1018 7.86505C43.7143 7.25653 44.4605 6.95278 45.3374 6.95278C45.7727 6.95278 46.1889 7.03783 46.5837 7.20692C46.9796 7.37702 47.2965 7.60281 47.5335 7.8853L46.9999 8.4199C46.5979 7.93896 46.0441 7.699 45.3363 7.699C44.6964 7.699 44.1436 7.92377 43.6769 8.37332C43.2101 8.82287 42.9772 9.40708 42.9772 10.1249C42.9772 10.8428 43.2101 11.427 43.6769 11.8766C44.1436 12.3261 44.6964 12.5509 45.3363 12.5509C46.0147 12.5509 46.5807 12.3251 47.0333 11.8725C47.3269 11.5779 47.497 11.1678 47.5426 10.6423H45.3363V9.91232H48.2797C48.3101 10.0713 48.3232 10.2242 48.3232 10.371Z" fill="white"/>
<path d="M52.9909 7.83372H50.2248V9.75949H52.7196V10.4895H50.2248V12.4153H52.9909V13.1625H49.4442V7.0875H52.9909V7.83372Z" fill="white"/>
<path d="M56.2825 13.1625H55.5018V7.83372H53.8049V7.0875H57.9794V7.83372H56.2825V13.1625Z" fill="white"/>
<path d="M60.9997 13.1625V7.0875H61.7803V13.1625H60.9997Z" fill="white"/>
<path d="M65.2422 13.1625H64.4616V7.83372H62.7646V7.0875H66.9391V7.83372H65.2422V13.1625Z" fill="white"/>
<path d="M74.8415 12.3778C74.2441 12.9914 73.5019 13.2982 72.614 13.2982C71.726 13.2982 70.9839 12.9914 70.3875 12.3778C69.7901 11.7642 69.4924 11.013 69.4924 10.125C69.4924 9.23703 69.7901 8.48576 70.3875 7.87218C70.9839 7.25861 71.726 6.95081 72.614 6.95081C73.4969 6.95081 74.238 7.25962 74.8374 7.87623C75.4368 8.49284 75.7365 9.24209 75.7365 10.125C75.7365 11.013 75.4378 11.7642 74.8415 12.3778ZM70.9636 11.8685C71.4132 12.3241 71.9629 12.5509 72.614 12.5509C73.265 12.5509 73.8158 12.3231 74.2644 11.8685C74.7139 11.4129 74.9397 10.8317 74.9397 10.125C74.9397 9.41827 74.7139 8.83709 74.2644 8.38147C73.8158 7.92584 73.265 7.69904 72.614 7.69904C71.9629 7.69904 71.4132 7.92686 70.9636 8.38147C70.5151 8.83709 70.2893 9.41827 70.2893 10.125C70.2893 10.8317 70.5151 11.4129 70.9636 11.8685Z" fill="white"/>
<path d="M76.8321 13.1625V7.0875H77.7818L80.7343 11.8128H80.7677L80.7343 10.6424V7.0875H81.5149V13.1625H80.6998L77.6107 8.20733H77.5773L77.6107 9.37778V13.1625H76.8321Z" fill="white"/>
<path d="M48.3232 10.371C48.3232 11.2195 48.0721 11.8948 47.5689 12.399C46.9979 12.9984 46.2527 13.2981 45.3374 13.2981C44.4605 13.2981 43.7143 12.9944 43.1018 12.3869C42.4882 11.7784 42.1814 11.0251 42.1814 10.126C42.1814 9.22585 42.4882 8.47255 43.1018 7.86505C43.7143 7.25653 44.4605 6.95278 45.3374 6.95278C45.7727 6.95278 46.1889 7.03783 46.5837 7.20692C46.9796 7.37702 47.2965 7.60281 47.5335 7.8853L46.9999 8.4199C46.5979 7.93896 46.0441 7.699 45.3363 7.699C44.6964 7.699 44.1436 7.92377 43.6769 8.37332C43.2101 8.82287 42.9772 9.40708 42.9772 10.1249C42.9772 10.8428 43.2101 11.427 43.6769 11.8766C44.1436 12.3261 44.6964 12.5509 45.3363 12.5509C46.0147 12.5509 46.5807 12.3251 47.0333 11.8725C47.3269 11.5779 47.497 11.1678 47.5426 10.6423H45.3363V9.91232H48.2797C48.3101 10.0713 48.3232 10.2242 48.3232 10.371Z" stroke="white" stroke-width="0.2025" stroke-miterlimit="10"/>
<path d="M52.9909 7.83372H50.2248V9.75949H52.7196V10.4895H50.2248V12.4153H52.9909V13.1625H49.4442V7.0875H52.9909V7.83372Z" stroke="white" stroke-width="0.2025" stroke-miterlimit="10"/>
<path d="M56.2825 13.1625H55.5018V7.83372H53.8049V7.0875H57.9794V7.83372H56.2825V13.1625Z" stroke="white" stroke-width="0.2025" stroke-miterlimit="10"/>
<path d="M60.9997 13.1625V7.0875H61.7803V13.1625H60.9997Z" stroke="white" stroke-width="0.2025" stroke-miterlimit="10"/>
<path d="M65.2422 13.1625H64.4616V7.83372H62.7646V7.0875H66.9391V7.83372H65.2422V13.1625Z" stroke="white" stroke-width="0.2025" stroke-miterlimit="10"/>
<path d="M74.8415 12.3778C74.2441 12.9914 73.5019 13.2982 72.614 13.2982C71.726 13.2982 70.9839 12.9914 70.3875 12.3778C69.7901 11.7642 69.4924 11.013 69.4924 10.125C69.4924 9.23703 69.7901 8.48576 70.3875 7.87218C70.9839 7.25861 71.726 6.95081 72.614 6.95081C73.4969 6.95081 74.238 7.25962 74.8374 7.87623C75.4368 8.49284 75.7365 9.24209 75.7365 10.125C75.7365 11.013 75.4378 11.7642 74.8415 12.3778ZM70.9636 11.8685C71.4132 12.3241 71.9629 12.5509 72.614 12.5509C73.265 12.5509 73.8158 12.3231 74.2644 11.8685C74.7139 11.4129 74.9397 10.8317 74.9397 10.125C74.9397 9.41827 74.7139 8.83709 74.2644 8.38147C73.8158 7.92584 73.265 7.69904 72.614 7.69904C71.9629 7.69904 71.4132 7.92686 70.9636 8.38147C70.5151 8.83709 70.2893 9.41827 70.2893 10.125C70.2893 10.8317 70.5151 11.4129 70.9636 11.8685Z" stroke="white" stroke-width="0.2025" stroke-miterlimit="10"/>
<path d="M76.8321 13.1625V7.0875H77.7818L80.7343 11.8128H80.7677L80.7343 10.6424V7.0875H81.5149V13.1625H80.6998L77.6107 8.20733H77.5773L77.6107 9.37778V13.1625H76.8321Z" stroke="white" stroke-width="0.2025" stroke-miterlimit="10"/>
<defs>
<filter id="filter0_ii_2046_4002" x="10.4102" y="7.23022" width="23.3782" height="26.0424" filterUnits="userSpaceOnUse" color-interpolation-filters="sRGB">
<feFlood flood-opacity="0" result="BackgroundImageFix"/>
<feBlend mode="normal" in="SourceGraphic" in2="BackgroundImageFix" result="shape"/>
<feColorMatrix in="SourceAlpha" type="matrix" values="0 0 0 0 0 0 0 0 0 0 0 0 0 0 0 0 0 0 127 0" result="hardAlpha"/>
<feOffset dy="-0.151875"/>
<feComposite in2="hardAlpha" operator="arithmetic" k2="-1" k3="1"/>
<feColorMatrix type="matrix" values="0 0 0 0 0 0 0 0 0 0 0 0 0 0 0 0 0 0 0.12 0"/>
<feBlend mode="normal" in2="shape" result="effect1_innerShadow_2046_4002"/>
<feColorMatrix in="SourceAlpha" type="matrix" values="0 0 0 0 0 0 0 0 0 0 0 0 0 0 0 0 0 0 127 0" result="hardAlpha"/>
<feOffset dy="0.151875"/>
<feComposite in2="hardAlpha" operator="arithmetic" k2="-1" k3="1"/>
<feColorMatrix type="matrix" values="0 0 0 0 1 0 0 0 0 1 0 0 0 0 1 0 0 0 0.25 0"/>
<feBlend mode="normal" in2="effect1_innerShadow_2046_4002" result="effect2_innerShadow_2046_4002"/>
</filter>
<filter id="filter1_i_2046_4002" x="10.8789" y="20.2511" width="16.8945" height="13.0215" filterUnits="userSpaceOnUse" color-interpolation-filters="sRGB">
<feFlood flood-opacity="0" result="BackgroundImageFix"/>
<feBlend mode="normal" in="SourceGraphic" in2="BackgroundImageFix" result="shape"/>
<feColorMatrix in="SourceAlpha" type="matrix" values="0 0 0 0 0 0 0 0 0 0 0 0 0 0 0 0 0 0 127 0" result="hardAlpha"/>
<feOffset dy="-0.151875"/>
<feComposite in2="hardAlpha" operator="arithmetic" k2="-1" k3="1"/>
<feColorMatrix type="matrix" values="0 0 0 0 0 0 0 0 0 0 0 0 0 0 0 0 0 0 0.08 0"/>
<feBlend mode="normal" in2="shape" result="effect1_innerShadow_2046_4002"/>
</filter>
<linearGradient id="paint0_linear_2046_4002" x1="22.3858" y1="8.8179" x2="5.39403" y2="25.8097" gradientUnits="userSpaceOnUse">
<stop stop-color="#00A0FF"/>
<stop offset="0.0066" stop-color="#00A1FF"/>
<stop offset="0.2601" stop-color="#00BEFF"/>
<stop offset="0.5122" stop-color="#00D2FF"/>
<stop offset="0.7604" stop-color="#00DFFF"/>
<stop offset="1" stop-color="#00E3FF"/>
</linearGradient>
<linearGradient id="paint1_linear_2046_4002" x1="34.5687" y1="20.2511" x2="10.0704" y2="20.2511" gradientUnits="userSpaceOnUse">
<stop stop-color="#FFE000"/>
<stop offset="0.4087" stop-color="#FFBD00"/>
<stop offset="0.7754" stop-color="#FFA500"/>
<stop offset="1" stop-color="#FF9C00"/>
</linearGradient>
<linearGradient id="paint2_linear_2046_4002" x1="25.4509" y1="22.5737" x2="2.40793" y2="45.6167" gradientUnits="userSpaceOnUse">
<stop stop-color="#FF3A44"/>
<stop offset="1" stop-color="#C31162"/>
</linearGradient>
<linearGradient id="paint3_linear_2046_4002" x1="7.70107" y1="0.179049" x2="17.9904" y2="10.4684" gradientUnits="userSpaceOnUse">
<stop stop-color="#32A071"/>
<stop offset="0.0685" stop-color="#2DA771"/>
<stop offset="0.4762" stop-color="#15CF74"/>
<stop offset="0.8009" stop-color="#06E775"/>
<stop offset="1" stop-color="#00F076"/>
</linearGradient>
</defs>
</svg>
