<svg width="64" height="64" viewBox="0 0 64 64" fill="none" xmlns="http://www.w3.org/2000/svg">
<g clip-path="url(#clip0_1564_598)">
<path fill-rule="evenodd" clip-rule="evenodd" d="M64 13.8667V50.1334C64.0037 51.9554 63.6475 53.7602 62.9519 55.4442C62.2563 57.1282 61.2351 58.6583 59.9467 59.9467C58.6583 61.2351 57.1282 62.2563 55.4442 62.9519C53.7602 63.6475 51.9554 64.0037 50.1334 64H13.8667C12.0447 64.0037 10.2399 63.6475 8.55585 62.9519C6.87182 62.2563 5.34173 61.2351 4.05336 59.9467C2.765 58.6583 1.74373 57.1282 1.04815 55.4442C0.352575 53.7602 -0.00361259 51.9554 2.76224e-05 50.1334V13.8667C-0.00361259 12.0447 0.352575 10.2399 1.04815 8.55585C1.74373 6.87182 2.765 5.34173 4.05336 4.05336C5.34173 2.765 6.87182 1.74373 8.55585 1.04815C10.2399 0.352575 12.0447 -0.00361259 13.8667 2.76224e-05H50.1334C51.9554 -0.00361259 53.7602 0.352575 55.4442 1.04815C57.1282 1.74373 58.6583 2.765 59.9467 4.05336C61.2351 5.34173 62.2563 6.87182 62.9519 8.55585C63.6475 10.2399 64.0037 12.0447 64 13.8667Z" fill="url(#paint0_linear_1564_598)"/>
<path fill-rule="evenodd" clip-rule="evenodd" d="M44.0532 36.7998H51.9999C52.7779 36.7998 53.524 37.1089 54.0741 37.659C54.6242 38.2091 54.9332 38.9552 54.9332 39.7331C54.9332 40.5111 54.6242 41.2572 54.0741 41.8073C53.524 42.3574 52.7779 42.6665 51.9999 42.6665H44.0532V36.7998Z" fill="white"/>
<path fill-rule="evenodd" clip-rule="evenodd" d="M34.2931 36.8C34.8473 36.7966 35.3967 36.9034 35.9094 37.1139C36.422 37.3245 36.8878 37.6347 37.2797 38.0266C37.6716 38.4185 37.9819 38.8843 38.1924 39.397C38.403 39.9097 38.5097 40.4591 38.5064 41.0133C38.5085 41.58 38.3998 42.1416 38.1864 42.6666H11.9997C11.2218 42.6666 10.4757 42.3576 9.92556 41.8075C9.37545 41.2574 9.06641 40.5113 9.06641 39.7333C9.06641 38.9553 9.37545 38.2092 9.92556 37.6591C10.4757 37.109 11.2218 36.8 11.9997 36.8H34.2931ZM33.5464 17.4933V22.6133H30.1331L25.9731 15.4666C25.7903 15.1514 25.6716 14.8033 25.6235 14.4421C25.5754 14.081 25.599 13.7139 25.693 13.3619C25.7869 13.0099 25.9493 12.6798 26.1709 12.3906C26.3925 12.1014 26.6689 11.8588 26.9844 11.6765C27.2999 11.4942 27.6482 11.3759 28.0094 11.3284C28.3706 11.2808 28.7377 11.305 29.0895 11.3994C29.4414 11.4939 29.7712 11.6567 30.0601 11.8788C30.349 12.1008 30.5913 12.3776 30.7731 12.6933L33.5464 17.4933ZM36.4797 22.4533L51.0397 47.68C51.4287 48.3518 51.5349 49.1507 51.3348 49.9009C51.1348 50.651 50.645 51.291 49.9731 51.68C49.3012 52.0689 48.5023 52.1751 47.7522 51.975C47.002 51.775 46.3621 51.2852 45.9731 50.6133L37.1731 35.3066C36.3731 33.8133 35.7864 32.64 35.4131 32C34.5366 30.5067 34.1669 28.77 34.3591 27.0493C34.5514 25.3285 35.2953 23.7162 36.4797 22.4533Z" fill="white"/>
<path fill-rule="evenodd" clip-rule="evenodd" d="M24.5335 39.4663H17.7601L33.0668 12.9596C33.4558 12.2877 34.0957 11.7979 34.8459 11.5979C35.596 11.3978 36.3949 11.504 37.0668 11.893C37.7387 12.2819 38.2285 12.9219 38.4285 13.6721C38.6286 14.4222 38.5224 15.2211 38.1335 15.893L24.5335 39.4663ZM20.9601 45.5996L18.1335 50.5596C17.9408 50.8923 17.6846 51.1838 17.3793 51.4174C17.0741 51.6511 16.7258 51.8223 16.3544 51.9214C15.9829 52.0204 15.5956 52.0454 15.2146 51.9947C14.8335 51.9441 14.4661 51.8189 14.1335 51.6263C13.8008 51.4337 13.5093 51.1774 13.2756 50.8722C13.042 50.5669 12.8707 50.2186 12.7717 49.8472C12.6726 49.4758 12.6477 49.0885 12.6984 48.7074C12.749 48.3263 12.8742 47.959 13.0668 47.6263L15.1468 43.9996C15.7927 43.6782 16.5053 43.5138 17.2268 43.5196C17.9792 43.4949 18.7242 43.6755 19.3819 44.0419C20.0396 44.4083 20.5852 44.9468 20.9601 45.5996Z" fill="white"/>
</g>
<defs>
<linearGradient id="paint0_linear_1564_598" x1="31.9995" y1="64" x2="31.9995" y2="3.05176e-05" gradientUnits="userSpaceOnUse">
<stop stop-color="#1D6FF2"/>
<stop offset="1" stop-color="#1AC8FC"/>
</linearGradient>
<clipPath id="clip0_1564_598">
<rect width="64" height="64" fill="white"/>
</clipPath>
</defs>
</svg>
